<svg width="387" height="139" viewBox="0 0 387 139" fill="none" xmlns="http://www.w3.org/2000/svg">
<path d="M22.0094 69.8401L25.193 69.2932V44.8596L22.0094 44.3127V41.8323H29.0406V53.9807C29.7698 52.9651 30.6617 52.1773 31.7164 51.6174C32.7711 51.0575 33.943 50.7776 35.2321 50.7776C37.4977 50.7776 39.2555 51.4547 40.5055 52.8088C41.7555 54.163 42.3805 56.2463 42.3805 59.0588V69.2932L45.5641 69.8401V72.301H35.3492V69.8401L38.5328 69.2932V59.0198C38.5328 57.275 38.1552 55.9859 37.4 55.1526C36.6578 54.3193 35.5446 53.9026 34.0602 53.9026C33.0055 53.9026 32.042 54.1565 31.1696 54.6643C30.3102 55.1591 29.6005 55.8362 29.0406 56.6956V69.2932L32.2242 69.8401V72.301H22.0094V69.8401ZM57.8102 72.7112C54.8675 72.7112 52.5237 71.7346 50.7789 69.7815C49.0472 67.8153 48.1813 65.2698 48.1813 62.1448V61.2854C48.1813 58.2776 49.0732 55.7776 50.8571 53.7854C52.6539 51.7802 54.7763 50.7776 57.2242 50.7776C60.0628 50.7776 62.2112 51.637 63.6696 53.3557C65.1409 55.0745 65.8766 57.3661 65.8766 60.2307V62.6331H52.1656L52.1071 62.7307C52.1461 64.762 52.6604 66.4351 53.65 67.7502C54.6396 69.0523 56.0263 69.7034 57.8102 69.7034C59.1123 69.7034 60.2516 69.5211 61.2281 69.1565C62.2177 68.7789 63.0706 68.2646 63.7867 67.6135L65.2906 70.1135C64.5354 70.8427 63.5328 71.4612 62.2828 71.969C61.0459 72.4638 59.555 72.7112 57.8102 72.7112ZM57.2242 53.8049C55.9352 53.8049 54.8349 54.3518 53.9235 55.4456C53.012 56.5263 52.4521 57.887 52.2438 59.5276L52.2828 59.6252H62.0289V59.1174C62.0289 57.607 61.6253 56.344 60.818 55.3284C60.0107 54.3127 58.8128 53.8049 57.2242 53.8049ZM69.1578 44.3127V41.8323H76.1891V69.2932L79.3727 69.8401V72.301H69.1578V69.8401L72.3414 69.2932V44.8596L69.1578 44.3127ZM81.775 44.3127V41.8323H88.8063V69.2932L91.9899 69.8401V72.301H81.775V69.8401L84.9586 69.2932V44.8596L81.775 44.3127ZM94.5485 61.5393C94.5485 58.4143 95.3948 55.8427 97.0875 53.8245C98.7802 51.7932 101.078 50.7776 103.982 50.7776C106.899 50.7776 109.203 51.7867 110.896 53.8049C112.602 55.8232 113.455 58.4013 113.455 61.5393V61.969C113.455 65.12 112.608 67.6982 110.916 69.7034C109.223 71.7086 106.925 72.7112 104.021 72.7112C101.091 72.7112 98.7802 71.7086 97.0875 69.7034C95.3948 67.6851 94.5485 65.107 94.5485 61.969V61.5393ZM98.3961 61.969C98.3961 64.2086 98.8649 66.0575 99.8024 67.5159C100.753 68.9742 102.159 69.7034 104.021 69.7034C105.844 69.7034 107.231 68.9742 108.181 67.5159C109.132 66.0575 109.607 64.2086 109.607 61.969V61.5393C109.607 59.3258 109.132 57.4833 108.181 56.012C107.231 54.5406 105.831 53.8049 103.982 53.8049C102.133 53.8049 100.74 54.5406 99.8024 56.012C98.8649 57.4833 98.3961 59.3258 98.3961 61.5393V61.969Z" fill="black"/>
<path d="M59.7626 90.1615L57.1015 90.5033L51.5839 112.281H45.6269L40.7197 96.558H40.5732L35.666 112.281H29.7333L24.1913 90.5033L21.5302 90.1615V85.8646H33.4931V90.1615L30.6855 90.6986L33.1757 102.784H33.3222L38.2538 85.8646H43.039L48.0195 102.832H48.166L50.6318 90.723L47.7997 90.1615V85.8646H59.7626V90.1615ZM62.204 98.8285C62.204 94.8897 63.3027 91.667 65.4999 89.1605C67.7135 86.6377 70.7652 85.3763 74.6552 85.3763C78.5615 85.3763 81.6132 86.6296 83.8105 89.1361C86.024 91.6426 87.1308 94.8734 87.1308 98.8285V99.3412C87.1308 103.313 86.024 106.551 83.8105 109.058C81.6132 111.548 78.5777 112.793 74.704 112.793C70.7815 112.793 67.7135 111.548 65.4999 109.058C63.3027 106.551 62.204 103.313 62.204 99.3412V98.8285ZM69.3329 99.3412C69.3329 101.75 69.7561 103.687 70.6025 105.152C71.4488 106.6 72.816 107.325 74.704 107.325C76.5432 107.325 77.886 106.592 78.7324 105.127C79.595 103.662 80.0263 101.734 80.0263 99.3412V98.8285C80.0263 96.4847 79.595 94.5723 78.7324 93.0912C77.8697 91.61 76.5107 90.8695 74.6552 90.8695C72.7997 90.8695 71.4488 91.61 70.6025 93.0912C69.7561 94.5723 69.3329 96.4847 69.3329 98.8285V99.3412ZM90.7685 108.008L94.1865 107.276V90.8939L90.4023 90.1615V85.8646H100.827L101.144 89.722C101.763 88.3548 102.56 87.2887 103.537 86.5238C104.514 85.7588 105.645 85.3763 106.931 85.3763C107.305 85.3763 107.696 85.4089 108.102 85.474C108.526 85.5228 108.876 85.5879 109.152 85.6693L108.395 92.1634L105.466 92.0902C104.424 92.0902 103.561 92.2936 102.878 92.7005C102.194 93.1074 101.673 93.6852 101.315 94.4339V107.276L104.733 108.008V112.281H90.7685V108.008ZM109.299 78.4915V74.1947H120.236V107.276L123.679 108.008V112.281H109.665V108.008L113.107 107.276V79.224L109.299 78.4915ZM143.21 109.058C142.38 110.279 141.395 111.206 140.256 111.841C139.133 112.476 137.847 112.793 136.398 112.793C133.143 112.793 130.612 111.605 128.806 109.229C127.015 106.853 126.12 103.711 126.12 99.805V99.2923C126.12 95.1257 127.023 91.7647 128.83 89.2093C130.637 86.654 133.176 85.3763 136.447 85.3763C137.766 85.3763 138.954 85.6693 140.012 86.2552C141.07 86.8249 141.997 87.6387 142.795 88.6966V79.224L138.986 78.4915V74.1947H142.795H149.924V107.276L153.342 108.008V112.281H143.747L143.21 109.058ZM133.249 99.805C133.249 102.116 133.631 103.939 134.396 105.274C135.178 106.592 136.447 107.251 138.205 107.251C139.247 107.251 140.15 107.04 140.915 106.617C141.68 106.193 142.307 105.583 142.795 104.785V93.5794C142.307 92.7331 141.68 92.082 140.915 91.6263C140.166 91.1543 139.279 90.9183 138.254 90.9183C136.512 90.9183 135.243 91.6914 134.445 93.2376C133.648 94.7839 133.249 96.8021 133.249 99.2923V99.805Z" fill="#054986"/>
</svg>
