<svg width="571" height="402" viewBox="0 0 571 402" fill="none" xmlns="http://www.w3.org/2000/svg">
<path d="M545.892 284.795C403.476 214.803 221.168 213.345 134.193 221.71C47.2183 230.076 7.89198 233.361 6.23683 263.722C-7.03994 319.165 323.798 279.765 186.74 352.912C54.7917 423.333 688.308 354.788 545.892 284.795Z" fill="url(#paint0_linear)" fill-opacity="0.43"/>
<path d="M187.254 260.519H192.801C195.16 260.519 197.422 261.473 199.09 263.171C200.758 264.87 201.695 267.174 201.695 269.576V274.799H178.428V269.576C178.428 267.186 179.356 264.893 181.009 263.196C182.662 261.499 184.907 260.537 187.254 260.519Z" fill="#455A64"/>
<path d="M109.367 233.709L98.5929 295.841H149.161L158.319 232.437L109.367 233.709Z" fill="#455A64"/>
<path d="M212.846 112.896H45.7125C38.1164 112.896 31.9586 119.167 31.9586 126.903V233.949C31.9586 241.685 38.1164 247.956 45.7125 247.956H212.846C220.442 247.956 226.599 241.685 226.599 233.949V126.903C226.599 119.167 220.442 112.896 212.846 112.896Z" fill="#263238"/>
<path d="M212.846 109.414H45.7125C38.1164 109.414 31.9586 115.685 31.9586 123.421V230.467C31.9586 238.203 38.1164 244.474 45.7125 244.474H212.846C220.442 244.474 226.6 238.203 226.6 230.467V123.421C226.6 115.685 220.442 109.414 212.846 109.414Z" fill="#455A64"/>
<path d="M382.732 131.465C401.401 131.465 419.305 138.484 432.508 150.979C445.711 163.474 453.132 180.421 453.138 198.094V275.379H312.326V198.094C312.332 180.421 319.752 163.474 332.955 150.979C346.158 138.484 364.063 131.465 382.732 131.465Z" fill="#455A64"/>
<path d="M205.196 235.85L198.174 240.495L190.372 258.003C190.372 258.003 192.49 259.336 194.128 257.919C195.767 256.503 202.031 246.327 202.031 246.327V252.347C202.039 253.528 202.509 254.665 203.353 255.544C204.197 256.423 205.356 256.982 206.612 257.117L218.181 260.492L232.381 256.711L233.596 240.922L205.196 235.85Z" fill="#C6A18E"/>
<path d="M382.732 77.6486L382.625 82.0671L381.561 148.124C381.444 155.792 373.731 161.812 364.242 161.637C354.667 161.462 346.869 155.046 346.848 147.295C346.848 139.158 346.614 130.597 346.614 130.597C346.614 130.597 334.507 128.857 331.996 115.188C330.752 108.394 331.145 97.2465 331.805 88.1333C331.946 86.1894 332.54 84.2903 333.551 82.5502C334.563 80.81 335.97 79.2649 337.69 78.0077C339.409 76.7505 341.405 75.8071 343.556 75.2345C345.708 74.6618 347.971 74.4716 350.209 74.6753L382.732 77.6486Z" fill="#C6A18E"/>
<path d="M331.981 98.696C331.978 99.214 332.19 99.7131 332.572 100.088C332.955 100.463 333.478 100.685 334.032 100.706C334.306 100.732 334.582 100.705 334.844 100.628C335.107 100.551 335.35 100.425 335.558 100.257C335.767 100.09 335.936 99.8843 336.057 99.6535C336.178 99.4227 336.248 99.1714 336.261 98.9148C336.266 98.6554 336.215 98.3977 336.113 98.1567C336.01 97.9156 335.858 97.6958 335.664 97.51C335.47 97.3241 335.239 97.1759 334.984 97.0738C334.729 96.9717 334.455 96.9178 334.177 96.915C333.907 96.8938 333.635 96.9233 333.377 97.0018C333.12 97.0804 332.882 97.2064 332.677 97.3724C332.472 97.5384 332.305 97.7411 332.186 97.9684C332.066 98.1958 331.997 98.4432 331.981 98.696Z" fill="#263238"/>
<path d="M331.524 96.4775C331.781 96.7379 333.397 95.6235 335.682 95.6339C337.967 95.6443 339.639 96.6754 339.884 96.4462C340.129 96.2171 339.739 95.863 339.003 95.4047C338.02 94.7724 336.853 94.4346 335.659 94.4362C334.454 94.4362 333.28 94.8016 332.316 95.4777C331.636 95.8734 331.391 96.3629 331.524 96.4775Z" fill="#263238"/>
<path d="M354.853 98.696C354.844 99.2138 355.052 99.7143 355.433 100.09C355.815 100.466 356.339 100.687 356.892 100.706C357.165 100.729 357.441 100.7 357.702 100.622C357.963 100.544 358.204 100.417 358.412 100.25C358.62 100.083 358.79 99.879 358.911 99.6496C359.033 99.4203 359.105 99.1704 359.122 98.9147C359.128 98.397 358.916 97.8976 358.533 97.5238C358.15 97.1499 357.625 96.9314 357.071 96.9151C356.799 96.8893 356.524 96.9156 356.263 96.9922C356.002 97.0688 355.76 97.1942 355.553 97.3608C355.345 97.5274 355.176 97.7317 355.056 97.9612C354.936 98.1907 354.866 98.4407 354.853 98.696Z" fill="#263238"/>
<path d="M353.972 96.9152C354.24 97.1755 355.845 96.0715 358.13 96.0715C360.415 96.0715 362.086 97.113 362.343 96.8839C362.599 96.6548 362.198 96.3007 361.462 95.8424C360.477 95.2131 359.312 94.8755 358.118 94.8738C356.913 94.8776 355.741 95.2426 354.775 95.9153C354.084 96.2903 353.85 96.7589 353.972 96.9152Z" fill="#263238"/>
<path d="M345.691 112.704C344.484 112.361 343.238 112.151 341.979 112.079C341.389 112.027 340.865 111.912 340.742 111.548C340.696 110.985 340.832 110.423 341.132 109.934L342.86 105.768C345.256 99.8624 346.984 94.9986 346.727 94.9153C346.471 94.832 344.331 99.5396 341.935 105.455C341.355 106.913 340.82 108.299 340.274 109.621C339.928 110.265 339.822 110.998 339.973 111.704C340.059 111.895 340.189 112.065 340.355 112.202C340.521 112.339 340.718 112.44 340.932 112.496C341.255 112.581 341.588 112.626 341.924 112.631C343.171 112.807 344.437 112.832 345.691 112.704Z" fill="#263238"/>
<path d="M346.649 117.849C347.085 117.339 347.652 116.94 348.297 116.691C348.942 116.441 349.645 116.349 350.339 116.422C350.843 116.464 351.333 116.601 351.779 116.825C352.226 117.049 352.619 117.355 352.936 117.724C353.241 118.079 353.422 118.514 353.454 118.968C353.486 119.423 353.367 119.876 353.114 120.265C352.749 120.65 352.27 120.922 351.737 121.049C351.204 121.175 350.643 121.149 350.127 120.974C349.049 120.617 348.056 120.065 347.207 119.349C346.947 119.177 346.724 118.962 346.549 118.714C346.465 118.597 346.42 118.459 346.42 118.318C346.42 118.177 346.465 118.039 346.549 117.922" fill="#EB756E" fill-opacity="0.51"/>
<path d="M352.412 114.183C352.033 114.183 352.033 116.485 349.915 118.12C347.797 119.755 345.145 119.516 345.134 119.838C345.134 119.984 345.713 120.286 346.828 120.318C348.284 120.336 349.7 119.875 350.829 119.016C351.907 118.192 352.599 117.007 352.757 115.714C352.858 114.745 352.579 114.173 352.412 114.183Z" fill="#263238"/>
<path d="M353.382 88.5101C353.616 89.0934 355.889 88.8226 358.576 89.1246C361.262 89.4267 363.424 90.1036 363.77 89.5829C363.937 89.3329 363.558 88.7914 362.655 88.229C361.489 87.5403 360.17 87.1091 358.799 86.9684C357.427 86.8276 356.04 86.9809 354.741 87.4166C353.783 87.7811 353.292 88.2394 353.382 88.5101Z" fill="#263238"/>
<path d="M332.36 90.3015C332.761 90.791 334.333 90.3015 336.228 90.3015C338.123 90.3015 339.728 90.6244 340.096 90.1245C340.252 89.8745 340.006 89.385 339.304 88.9267C338.368 88.3673 337.271 88.091 336.161 88.1352C335.048 88.1527 333.968 88.495 333.074 89.1142C332.405 89.562 332.182 90.062 332.36 90.3015Z" fill="#263238"/>
<path d="M385.464 72.9943C398.211 48.7494 431.986 16.6604 444.744 39.1721C458.69 63.9091 448.178 75.0838 452.681 85.915C453.757 88.4743 462.847 86.3005 463.086 89.6465C463.712 98.4886 458.381 108.097 453.593 115.762C454.244 115.791 454.916 115.699 455.597 115.49C456.189 115.299 456.76 115.341 457.259 115.611C457.758 115.881 458.169 116.37 458.455 117.036C458.741 117.701 458.893 118.521 458.898 119.422C458.902 120.323 456.067 132.145 455.788 133.065C452.583 143.228 450.439 141.606 444.58 148.771C445.651 149.618 446.882 150.063 448.202 150.083C448.622 150.091 449.003 150.279 449.305 150.629C449.608 150.979 449.823 151.479 449.929 152.08C450.034 152.681 450.027 153.363 449.909 154.057C449.79 154.752 449.563 155.436 449.251 156.043C446.786 160.648 443.778 164.492 440.504 167.22C437.23 169.949 433.796 171.474 430.518 171.655C422.436 172.09 415.974 165.154 412.164 155.565C408.354 145.977 406.833 133.927 405.861 121.707C405.266 114.679 404.801 107.323 402.522 101.832C400.244 96.3415 395.657 93.1049 390.87 96.2252" fill="black" fill-opacity="0.9"/>
<path d="M394.867 79.7096C394.867 79.7096 394.867 79.543 394.867 79.3035C394.832 78.9449 394.738 78.5935 394.588 78.262C394.11 77.164 393.509 76.1166 392.794 75.1375C392.105 74.1209 391.318 73.1656 390.442 72.2838C389.773 71.6173 389.271 71.2423 389.327 71.2423C389.862 71.3919 390.345 71.6682 390.732 72.0443C391.711 72.8805 392.569 73.8328 393.284 74.8771C394.03 75.9066 394.602 77.0379 394.978 78.2307C395.104 78.604 395.146 78.9977 395.101 79.3868C395.023 79.5951 394.889 79.7305 394.867 79.7096Z" fill="#FF725E"/>
<path d="M394.37 78.366C393.103 75.3803 391.068 72.7322 388.446 70.6559C385.823 68.5797 382.694 67.1392 379.334 66.4618C375.224 65.7427 370.976 66.2795 367.218 67.9928C365.835 67.1581 364.572 66.1605 363.462 65.0245C359.534 61.3235 354.662 58.6175 349.306 57.1612C343.913 55.7262 338.148 56.1437 333.056 58.3381C330.541 59.4513 328.331 61.085 326.593 63.1151C324.855 65.1452 323.635 67.5184 323.024 70.0549C322.469 72.6041 322.072 75.9213 323.024 78.366C323.976 80.8107 326.24 82.2875 328.419 83.9068C332.877 87.0312 339.565 87.1041 343.856 83.8026C343.555 86.0835 345.695 88.1977 348.114 88.6247C349.336 88.7666 350.577 88.6735 351.76 88.3511C352.942 88.0288 354.042 87.4839 354.991 86.75C356.877 85.2826 366.331 88.7155 367.977 87.0139C368.635 86.4202 361.634 80.8239 362.325 80.272C363.624 82.8983 365.559 85.2064 367.977 87.0139C370.395 88.8214 373.23 90.0788 376.257 90.6869C374.34 92.6345 381.819 97.6961 375.299 98.2273C376.09 100.769 381.875 104.299 381.819 106.945C381.819 109.173 376.257 110.215 375.8 112.402C375.179 115.465 375.653 118.634 377.149 121.421C377.717 122.463 381.819 112.402 379.055 125.014C380.17 126.868 380.17 126.868 381.819 127.337C385.23 128.326 391.115 116.755 392.631 112.162C393.901 108.33 394.392 101.456 395.874 97.6961C398.482 90.9472 396.866 84.3234 394.37 78.366Z" fill="black" fill-opacity="0.9"/>
<path d="M396.059 91.7076C395.999 91.8317 395.92 91.9473 395.825 92.0512C395.565 92.356 395.248 92.6137 394.889 92.8115C394.217 93.1786 393.459 93.385 392.681 93.4122C391.903 93.4395 391.13 93.2868 390.431 92.9678C389.956 92.7487 389.531 92.4443 389.182 92.0721C388.827 91.668 388.534 91.2193 388.313 90.739C387.915 89.7081 387.407 88.7172 386.797 87.7811C386.402 87.3288 385.915 86.9541 385.364 86.6788C384.813 86.4035 384.209 86.233 383.587 86.1772C382.195 86.0357 380.795 85.98 379.396 86.0106C377.959 85.9832 376.53 85.798 375.138 85.4586C373.85 85.121 372.603 84.6603 371.416 84.0838C369.411 83.1031 367.616 81.7863 366.121 80.1991C365.105 79.141 364.257 77.952 363.602 76.6684C363.419 76.3309 363.259 75.9831 363.123 75.6269C363.06 75.5018 363.019 75.3682 363 75.2311C363.921 76.9335 365.071 78.519 366.422 79.9491C367.924 81.4607 369.697 82.7155 371.661 83.6568C372.822 84.1966 374.035 84.6325 375.283 84.9587C376.632 85.2781 378.016 85.4528 379.407 85.4794C380.833 85.4473 382.26 85.51 383.676 85.6669C384.367 85.7365 385.035 85.9335 385.644 86.2464C386.252 86.5592 386.788 86.9818 387.221 87.4895C387.85 88.4757 388.362 89.5235 388.748 90.614C388.946 91.0614 389.209 91.4817 389.528 91.8638C389.841 92.2036 390.219 92.4861 390.642 92.697C391.291 93.0061 392.009 93.1672 392.738 93.1672C393.466 93.1672 394.184 93.0061 394.833 92.697C395.284 92.4158 395.696 92.0835 396.059 91.7076Z" fill="#455A64"/>
<path d="M393.485 97.9566C393.485 97.9566 393.284 98.2378 392.782 98.5919C392.073 99.0907 391.272 99.4648 390.419 99.6959C389.142 100.057 387.786 100.1 386.485 99.8209C384.879 99.4813 383.421 98.6931 382.305 97.5608C381.305 96.3929 380.459 95.1165 379.786 93.7594C379.238 92.6911 378.482 91.727 377.557 90.9161C376.945 90.3755 376.204 89.9792 375.395 89.76C375.079 89.7185 374.767 89.6594 374.458 89.583C374.781 89.5093 375.117 89.5093 375.439 89.583C376.321 89.7205 377.146 90.0806 377.825 90.6245C378.821 91.4368 379.642 92.4195 380.243 93.5198C380.914 94.8299 381.745 96.0635 382.718 97.1963C383.754 98.2507 385.099 98.9969 386.585 99.3418C387.8 99.6249 389.071 99.6249 390.286 99.3418C391.418 99.0264 392.495 98.5599 393.485 97.9566Z" fill="#455A64"/>
<path d="M316.705 241.541L318.585 246.031L314.88 286.985H409.392L405.175 274.738L416.924 275.313C435.047 276.185 449.855 260.704 446.328 243.679C446.217 243.169 446.106 242.615 445.961 242.147C440.098 220.239 432.121 190.786 429.351 182.093C424.756 167.718 414.532 160.887 414.532 160.887H414.376C400.235 149.853 380.999 148.874 380.999 148.874L373.912 153.428C370.418 155.667 373.912 186.013 385.875 163.029C381.683 163.359 386.562 150.686 382.732 149.023C383.739 150.134 381.332 148.413 382.732 149.023C381.724 147.912 347.334 150.285 346.9 148.874C338.578 149.709 327.653 151.739 319.964 154.897C315.595 156.831 311.685 159.599 308.473 163.029C305.261 166.46 302.815 170.481 301.285 174.847L276.597 244.009L234.565 238.572L225.575 262.044L268.164 271.748C275.8 273.925 283.985 273.528 291.351 270.622C298.717 267.717 304.816 262.48 308.628 255.788L316.705 241.583V241.541ZM395.318 247.116C395.318 247.116 399.356 232.305 401.815 224.335L407.778 246.68L395.318 247.116Z" fill="#2E353A"/>
<path d="M427.647 275.416H427.157H425.73H420.157L399.303 275.489L326.732 275.583H326.486V275.323C326.854 267.053 327.255 258.378 327.657 249.421V249.171H327.924L354.886 248.379L407.93 246.89L407.673 247.213C405.689 240.454 404.073 233.871 402.513 227.591C400.952 221.311 399.559 215.291 398.188 209.625C397.534 206.792 396.892 204.043 396.26 201.377C395.571 198.818 395.064 196.219 394.744 193.597C394.506 191.172 394.506 188.731 394.744 186.306C394.941 184.074 395.374 181.866 396.037 179.714C397.125 176.014 399.313 172.677 402.346 170.09C404.64 168.202 407.469 166.972 410.493 166.549C412.37 166.266 414.29 166.366 416.122 166.841C416.59 166.967 417.048 167.124 417.493 167.309C417.794 167.424 417.939 167.497 417.939 167.497C417.939 167.497 417.326 167.237 416.1 166.924C414.279 166.486 412.38 166.412 410.527 166.705C407.549 167.158 404.772 168.398 402.524 170.278C399.552 172.846 397.416 176.145 396.36 179.797C395.718 181.934 395.3 184.125 395.112 186.338C394.87 188.762 394.87 191.203 395.112 193.628C395.439 196.233 395.953 198.815 396.65 201.356C397.285 204.012 397.932 206.761 398.612 209.594C399.983 215.26 401.443 221.259 402.97 227.539C404.497 233.819 406.169 240.401 408.164 247.14L408.253 247.452H407.907L354.92 248.973L327.946 249.764L328.225 249.504C327.813 258.461 327.411 267.137 327.032 275.406L326.754 275.135L399.325 275.239L420.179 275.312H425.752H427.179C427.337 275.338 427.493 275.373 427.647 275.416Z" fill="#263238"/>
<path d="M321.939 183.203C321.988 183.415 322.007 183.632 321.995 183.848C321.995 184.275 321.995 184.89 321.995 185.713C321.839 187.997 321.409 190.257 320.713 192.451C319.66 195.686 318.424 198.867 317.012 201.981C315.26 205.761 313.894 209.687 312.933 213.708C312.148 217.756 312.125 221.901 312.866 225.956C313.465 229.273 314.321 232.545 315.43 235.746C316.366 238.485 317.202 240.683 317.781 242.203L318.428 243.953C318.52 244.153 318.583 244.363 318.617 244.578C318.492 244.396 318.391 244.2 318.316 243.995C318.127 243.547 317.871 242.953 317.57 242.276C316.923 240.776 316.032 238.6 315.04 235.86C313.865 232.655 312.963 229.367 312.342 226.029C311.55 221.92 311.55 217.712 312.342 213.604C313.301 209.552 314.678 205.596 316.455 201.793C318.016 198.273 319.386 195.096 320.256 192.347C320.983 190.184 321.472 187.958 321.716 185.702C321.894 184.098 321.883 183.203 321.939 183.203Z" fill="#263238"/>
<path d="M407.93 247.171C408.565 246.958 409.242 246.876 409.914 246.932C411.538 246.97 413.137 247.325 414.606 247.973C416.115 248.58 417.409 249.573 418.34 250.837C418.756 251.339 419.008 251.943 419.065 252.576C418.964 252.576 418.73 251.931 418.006 251.056C417.033 249.929 415.782 249.039 414.361 248.463C412.95 247.865 411.444 247.488 409.903 247.348C409.241 247.331 408.582 247.272 407.93 247.171Z" fill="#263238"/>
<path d="M399.593 155.343C400.201 155.506 400.793 155.715 401.365 155.968C401.933 156.186 402.624 156.447 403.416 156.78L406.057 157.988C407.038 158.436 408.075 159.03 409.2 159.582C410.326 160.134 411.43 160.873 412.678 161.602C415.277 163.25 417.719 165.104 419.978 167.143C424.101 170.868 427.251 175.429 429.185 180.474C429.525 181.339 429.808 182.222 430.032 183.119C430.233 183.911 430.422 184.577 430.5 185.202C430.625 185.783 430.707 186.371 430.745 186.962C430.536 186.403 430.379 185.828 430.277 185.244C430.177 184.682 429.954 184.025 429.72 183.244C429.486 182.463 429.174 181.609 428.806 180.651C426.779 175.721 423.631 171.261 419.577 167.58C417.343 165.562 414.935 163.719 412.377 162.071C411.184 161.342 410.047 160.623 408.955 159.988C407.863 159.352 406.837 158.811 405.868 158.342L403.271 157.072L401.276 156.176C400.694 155.937 400.131 155.658 399.593 155.343Z" fill="#263238"/>
<g opacity="0.3">
<path opacity="0.3" d="M395.903 198.981C395.903 198.981 386.496 237.798 386.641 241.599C386.667 243.597 386.993 245.581 387.611 247.494L395.413 247.557L395.48 246.838L402.056 224.873L395.903 198.981Z" fill="black"/>
</g>
<path d="M314.014 248.973L307.884 246.65C307.884 246.65 300.762 235.361 299.301 235.902C297.841 236.444 297.629 239.891 300.527 245.088L292.469 243.39C292.469 243.39 275.75 251.722 276.541 252.67C277.333 253.618 278.904 255.92 282.549 253.941C286.194 251.962 290.964 249.598 290.964 249.598L300.383 251.587L288.512 253.67L277.845 263.804C277.845 263.804 281.691 266.199 284.711 263.293L314.248 267.636H326.754L327.423 252.191L314.014 248.973Z" fill="#C6A18E"/>
<path d="M284.711 263.221C284.845 263.283 285.336 262.45 286.328 261.325C286.909 260.682 287.593 260.127 288.356 259.68C289.323 259.194 290.377 258.88 291.466 258.753C296.292 257.961 300.182 257.128 300.137 256.899C300.093 256.67 296.147 257.117 291.299 257.94C290.093 258.08 288.934 258.46 287.899 259.055C287.082 259.574 286.375 260.231 285.815 260.992C285.249 261.634 284.869 262.402 284.711 263.221Z" fill="#EB756E" fill-opacity="0.51"/>
<path d="M289.348 264.075C289.46 264.075 289.515 263.502 290.318 263.293C291.12 263.085 292.469 262.898 293.84 262.689C296.626 262.273 298.934 262.179 298.945 261.929C298.956 261.679 296.593 261.419 293.706 261.846C292.459 262 291.239 262.301 290.073 262.741C289.87 262.822 289.69 262.945 289.545 263.1C289.4 263.255 289.295 263.439 289.237 263.637C289.181 263.939 289.292 264.085 289.348 264.075Z" fill="#EB756E" fill-opacity="0.51"/>
<path d="M313.2 248.64C312.197 248.447 311.21 248.186 310.247 247.858C308.441 247.338 305.933 246.682 303.136 246.025L295.969 244.338C294.964 244.149 293.982 243.866 293.037 243.495C294.061 243.57 295.076 243.73 296.069 243.974C297.919 244.328 300.527 244.838 303.281 245.505C305.682 246.054 308.052 246.717 310.381 247.494C311.365 247.772 312.311 248.157 313.2 248.64Z" fill="#EB756E" fill-opacity="0.51"/>
<g filter="url(#filter0_d)">
<path d="M156.079 248.495L160.893 215.124L162.234 248.495H156.079Z" fill="#263238"/>
<path d="M112.216 212.941C112.376 212.941 111.15 221.24 109.476 231.407C107.803 241.573 106.324 249.802 106.152 249.779C105.98 249.756 107.218 241.48 108.892 231.313C110.565 221.147 112.055 212.918 112.216 212.941Z" fill="#263238"/>
<path d="M143.127 176.29C143.127 177.576 142.753 178.833 142.052 179.902C141.35 180.971 140.353 181.804 139.186 182.296C138.02 182.789 136.736 182.917 135.498 182.666C134.26 182.416 133.122 181.796 132.229 180.887C131.336 179.978 130.728 178.819 130.482 177.558C130.236 176.297 130.362 174.99 130.845 173.802C131.328 172.614 132.147 171.598 133.197 170.884C134.246 170.17 135.481 169.788 136.743 169.788C137.582 169.787 138.413 169.954 139.188 170.28C139.963 170.606 140.668 171.085 141.261 171.689C141.854 172.293 142.324 173.011 142.645 173.8C142.965 174.59 143.129 175.436 143.127 176.29Z" fill="#FAFAFA"/>
<path d="M136.743 182.815C135.476 182.815 134.237 182.432 133.184 181.715C132.13 180.998 131.309 179.979 130.824 178.787C130.339 177.595 130.212 176.283 130.459 175.017C130.707 173.751 131.317 172.589 132.213 171.676C133.109 170.764 134.251 170.142 135.493 169.89C136.736 169.639 138.024 169.768 139.195 170.262C140.366 170.756 141.367 171.592 142.071 172.665C142.775 173.738 143.15 174.999 143.15 176.29C143.147 178.019 142.471 179.677 141.27 180.9C140.07 182.123 138.442 182.812 136.743 182.815ZM136.743 169.823C135.488 169.823 134.26 170.203 133.216 170.913C132.171 171.624 131.358 172.634 130.877 173.815C130.396 174.997 130.271 176.297 130.516 177.551C130.761 178.806 131.365 179.958 132.253 180.862C133.141 181.767 134.273 182.383 135.505 182.632C136.736 182.882 138.013 182.754 139.173 182.264C140.334 181.775 141.325 180.946 142.023 179.882C142.721 178.819 143.093 177.569 143.093 176.29C143.09 174.576 142.42 172.933 141.23 171.721C140.04 170.509 138.426 169.826 136.743 169.823Z" fill="#263238"/>
</g>
<path d="M197.97 227.981L189.506 229.999L181.041 227.981L179.087 209.245H199.924L197.97 227.981Z" fill="#2062AF"/>
<path d="M189.506 210.763V228.389L189.525 228.394L196.375 226.761L197.956 210.763H189.506Z" fill="#3C9CD7"/>
<path d="M184.702 206.493V205.377H186.539V204.157H183.323V207.606H186.539V206.493H184.702ZM189.845 205.377H191.13V204.157H187.914V205.377C188.344 205.758 188.568 205.941 189.191 206.492C188.827 206.492 187.914 206.493 187.914 206.493V207.606H191.13V206.493L189.845 205.377ZM194.403 205.377H195.688V204.157H192.472V205.377C192.902 205.758 193.127 205.941 193.749 206.492C193.385 206.492 192.472 206.493 192.472 206.493V207.606H195.688V206.493L194.403 205.377Z" fill="black"/>
<path d="M189.498 215.447L183.44 217.681L183.641 219.893L189.498 217.676L195.729 215.317L195.987 213.055L189.498 215.447Z" fill="white"/>
<path d="M183.44 217.682L183.64 219.893L189.498 217.676V215.448L183.44 217.682Z" fill="url(#paint1_linear)"/>
<path d="M195.987 213.055L189.498 215.447V217.676L195.729 215.317L195.987 213.055Z" fill="url(#paint2_linear)"/>
<path d="M183.449 217.682L183.65 219.893L192.638 219.919L192.436 222.868L189.479 223.605L186.636 222.969L186.464 221.139H183.822L184.167 224.672L189.508 226.071L194.82 224.698L195.509 217.682H183.449Z" fill="url(#paint3_linear)"/>
<path opacity="0.05" d="M189.498 217.682H183.44L183.641 219.893L189.498 219.91V217.682ZM189.498 223.598L189.469 223.605L186.627 222.969L186.454 221.139H183.813L184.157 224.672L189.498 226.071V223.598Z" fill="black"/>
<path d="M182.894 213.055H195.987L195.729 215.317H183.21L182.894 213.055Z" fill="url(#paint4_linear)"/>
<path opacity="0.05" d="M189.498 213.055H182.894L183.21 215.317H189.498V213.055Z" fill="black"/>
<path d="M76.6604 231.511C76.5091 231.511 76.3679 231.473 76.2367 231.406L74.8951 230.655C74.6933 230.55 74.7942 230.512 74.8548 230.493C75.1271 230.407 75.1776 230.388 75.46 230.236C75.4903 230.217 75.5307 230.227 75.5609 230.246L76.5898 230.826C76.6302 230.845 76.6806 230.845 76.7108 230.826L80.7357 228.629C80.776 228.61 80.7963 228.572 80.7963 228.524V224.139C80.7963 224.092 80.776 224.054 80.7357 224.035L76.7108 221.847C76.6705 221.828 76.62 221.828 76.5898 221.847L72.5649 224.035C72.5246 224.054 72.5043 224.101 72.5043 224.139V228.524C72.5043 228.562 72.5246 228.61 72.5649 228.629L73.6645 229.228C74.2596 229.513 74.6328 229.18 74.6328 228.847V224.52C74.6328 224.463 74.6833 224.405 74.7539 224.405H75.2683C75.3289 224.405 75.3894 224.453 75.3894 224.52V228.847C75.3894 229.599 74.9556 230.036 74.1991 230.036C73.9671 230.036 73.7855 230.036 73.271 229.799L72.2119 229.228C71.9496 229.085 71.7882 228.819 71.7882 228.534V224.149C71.7882 223.863 71.9496 223.597 72.2119 223.454L76.2367 221.257C76.4889 221.124 76.8319 221.124 77.0841 221.257L81.1089 223.454C81.3712 223.597 81.5327 223.863 81.5327 224.149V228.534C81.5327 228.819 81.3712 229.085 81.1089 229.228L77.0841 231.425C76.9529 231.482 76.8017 231.511 76.6604 231.511H76.6604ZM77.9011 228.496C76.1359 228.496 75.7727 227.735 75.7727 227.088C75.7727 227.031 75.8232 226.974 75.8938 226.974H76.4183C76.4788 226.974 76.5293 227.012 76.5293 227.069C76.61 227.573 76.842 227.82 77.9112 227.82C78.7586 227.82 79.1218 227.639 79.1218 227.211C79.1218 226.964 79.0208 226.783 77.6994 226.66C76.5999 226.555 75.9139 226.327 75.9139 225.499C75.9139 224.729 76.6 224.272 77.7499 224.272C79.041 224.272 79.6766 224.691 79.7573 225.604C79.7573 225.633 79.7472 225.661 79.727 225.69C79.7068 225.709 79.6766 225.728 79.6463 225.728H79.1217C79.0713 225.728 79.0208 225.69 79.0108 225.642C78.8897 225.119 78.577 224.948 77.7499 224.948C76.8218 224.948 76.7108 225.252 76.7108 225.48C76.7108 225.756 76.842 225.842 78.0928 225.994C79.3336 226.146 79.9187 226.365 79.9187 227.183C79.9086 228.02 79.1823 228.496 77.9011 228.496Z" fill="#539E43"/>
<path d="M64.1722 214.361C64.1722 214.19 64.0713 214.028 63.9099 213.943L59.6328 211.622C59.5621 211.584 59.4815 211.565 59.4008 211.555H59.3604C59.2798 211.555 59.199 211.584 59.1284 211.622L54.8514 213.943C54.6899 214.028 54.5891 214.19 54.5891 214.361L54.5992 220.601C54.5992 220.686 54.6497 220.772 54.7303 220.81C54.811 220.858 54.9119 220.858 54.9826 220.81L57.5246 219.44C57.686 219.355 57.7869 219.193 57.7869 219.022V216.102C57.7869 215.931 57.8877 215.769 58.0491 215.683L59.1284 215.094C59.2092 215.046 59.2999 215.027 59.3907 215.027C59.4815 215.027 59.5723 215.046 59.643 215.094L60.7223 215.683C60.8837 215.769 60.9845 215.931 60.9845 216.102V219.022C60.9845 219.193 61.0854 219.355 61.2468 219.44L63.7888 220.81C63.8696 220.858 63.9704 220.858 64.0511 220.81C64.1319 220.772 64.1823 220.686 64.1823 220.601L64.1722 214.361ZM84.7304 205.772C84.6497 205.734 84.5488 205.734 84.4781 205.772C84.3975 205.82 84.347 205.896 84.347 205.981V212.164C84.347 212.221 84.3168 212.278 84.2563 212.316C84.1958 212.345 84.1352 212.345 84.0747 212.316L83.0055 211.736C82.9271 211.694 82.8384 211.672 82.7482 211.672C82.658 211.672 82.5693 211.694 82.4909 211.736L78.2139 214.066C78.0525 214.152 77.9516 214.314 77.9516 214.485V219.136C77.9516 219.307 78.0525 219.469 78.2139 219.555L82.4909 221.885C82.5693 221.927 82.658 221.949 82.7482 221.949C82.8384 221.949 82.9271 221.927 83.0055 221.885L87.2825 219.555C87.4439 219.469 87.5448 219.307 87.5448 219.136V207.541C87.5448 207.361 87.4439 207.199 87.2825 207.113L84.7304 205.772H84.7304ZM84.337 217.605C84.337 217.652 84.3168 217.69 84.2764 217.709L82.8138 218.508C82.7934 218.518 82.7709 218.523 82.7482 218.523C82.7255 218.523 82.703 218.518 82.6826 218.508L81.22 217.709C81.1796 217.69 81.1594 217.643 81.1594 217.605V216.007C81.1594 215.959 81.1796 215.921 81.22 215.902L82.6826 215.103C82.703 215.094 82.7255 215.089 82.7482 215.089C82.7709 215.089 82.7934 215.094 82.8138 215.103L84.2764 215.902C84.3168 215.921 84.337 215.969 84.337 216.007V217.605ZM98.9637 215.969C99.1252 215.883 99.216 215.721 99.216 215.55V214.418C99.216 214.247 99.1151 214.085 98.9637 214L94.7169 211.679C94.6386 211.637 94.5499 211.615 94.4597 211.615C94.3695 211.615 94.2809 211.637 94.2025 211.679L89.9254 214.009C89.764 214.095 89.6632 214.257 89.6632 214.428V219.079C89.6632 219.25 89.764 219.412 89.9254 219.497L94.1722 221.78C94.3337 221.866 94.5253 221.866 94.6766 221.78L97.2488 220.43C97.3296 220.392 97.38 220.306 97.38 220.22C97.38 220.135 97.3296 220.049 97.2488 220.011L92.9516 217.681C92.871 217.633 92.8205 217.557 92.8205 217.472V216.016C92.8205 215.931 92.871 215.845 92.9516 215.807L94.2933 215.084C94.3326 215.061 94.378 215.048 94.4244 215.048C94.4708 215.048 94.5163 215.061 94.5556 215.084L95.8971 215.807C95.9779 215.855 96.0283 215.931 96.0283 216.016V217.158C96.0283 217.243 96.0788 217.329 96.1594 217.367C96.2402 217.414 96.341 217.414 96.4217 217.367L98.9637 215.969Z" fill="#333333"/>
<path d="M94.3941 215.75C94.4091 215.741 94.4266 215.736 94.4445 215.736C94.4624 215.736 94.4799 215.741 94.4949 215.75L95.3121 216.197C95.3423 216.216 95.3625 216.244 95.3625 216.283V217.177C95.3625 217.215 95.3423 217.243 95.3121 217.262L94.4949 217.709C94.4799 217.719 94.4624 217.724 94.4445 217.724C94.4266 217.724 94.4091 217.719 94.3941 217.709L93.577 217.262C93.5467 217.243 93.5265 217.215 93.5265 217.177V216.283C93.5265 216.244 93.5467 216.216 93.577 216.197L94.3941 215.75Z" fill="#539E43"/>
<mask id="mask0" mask-type="alpha" maskUnits="userSpaceOnUse" x="66" y="211" width="10" height="11">
<path d="M71.3241 211.698C71.2457 211.656 71.1571 211.634 71.0669 211.634C70.9767 211.634 70.8881 211.656 70.8097 211.698L66.563 214.009C66.4015 214.095 66.3107 214.256 66.3107 214.428V219.06C66.3107 219.231 66.4116 219.393 66.563 219.478L70.8097 221.79C70.8881 221.832 70.9767 221.854 71.0669 221.854C71.1571 221.854 71.2457 221.832 71.3241 221.79L75.571 219.478C75.7324 219.393 75.8232 219.231 75.8232 219.06V214.428C75.8232 214.257 75.7222 214.095 75.571 214.009L71.3241 211.698Z" fill="white"/>
</mask>
<g mask="url(#mask0)">
<path d="M71.3241 211.698C71.2457 211.656 71.1571 211.634 71.0669 211.634C70.9767 211.634 70.8881 211.656 70.8097 211.698L66.563 214.009C66.4015 214.095 66.3107 214.256 66.3107 214.428V219.06C66.3107 219.231 66.4116 219.393 66.563 219.478L70.8097 221.79C70.8881 221.832 70.9767 221.854 71.0669 221.854C71.1571 221.854 71.2457 221.832 71.3241 221.79L75.571 219.478C75.7324 219.393 75.8232 219.231 75.8232 219.06V214.428C75.8232 214.257 75.7222 214.095 75.571 214.009L71.3241 211.698Z" fill="url(#paint5_linear)"/>
<path d="M75.5812 214.01L71.3143 211.699C71.2724 211.679 71.2284 211.663 71.1831 211.651L66.4017 219.375C66.4413 219.42 66.4891 219.459 66.543 219.489L70.8099 221.8C70.931 221.867 71.0722 221.886 71.2033 221.848L75.6922 214.105C75.662 214.067 75.6215 214.039 75.5812 214.01V214.01Z" fill="url(#paint6_linear)"/>
<path fill-rule="evenodd" clip-rule="evenodd" d="M75.5918 219.478C75.7128 219.412 75.8036 219.298 75.844 219.174L71.1633 211.641C71.0422 211.622 70.911 211.631 70.8002 211.698L66.5635 214L71.133 221.856C71.1995 221.846 71.264 221.827 71.3247 221.799L75.5917 219.479L75.5918 219.478Z" fill="url(#paint7_linear)"/>
<path fill-rule="evenodd" clip-rule="evenodd" d="M75.5912 219.478L71.3343 221.79C71.2742 221.819 71.2094 221.838 71.1426 221.847L71.2234 221.99L75.9442 219.412V219.355L75.8231 219.165C75.803 219.298 75.7122 219.412 75.5912 219.478Z" fill="url(#paint8_linear)"/>
<path fill-rule="evenodd" clip-rule="evenodd" d="M75.5912 219.478L71.3343 221.79C71.2742 221.819 71.2094 221.838 71.1426 221.847L71.2234 221.99L75.9442 219.412V219.355L75.8231 219.165C75.803 219.298 75.7122 219.412 75.5912 219.478Z" fill="url(#paint9_linear)"/>
</g>
<g clip-path="url(#clip0)">
<path d="M136.31 127.984H163.582V152.463H136.31V127.984Z" fill="#F7DF1E"/>
<path d="M144.988 143.775L147.075 142.641C147.478 143.282 147.844 143.824 148.722 143.824C149.565 143.824 150.096 143.529 150.096 142.379V134.557H152.658V142.411C152.658 144.794 151.102 145.878 148.832 145.878C146.782 145.878 145.592 144.925 144.988 143.775L144.988 143.775ZM154.05 143.529L156.137 142.444C156.687 143.249 157.401 143.841 158.664 143.841C159.726 143.841 160.403 143.364 160.403 142.707C160.403 141.918 159.707 141.639 158.535 141.179L157.895 140.932C156.046 140.226 154.819 139.339 154.819 137.465C154.819 135.74 156.284 134.425 158.572 134.425C160.201 134.425 161.373 134.935 162.215 136.266L160.22 137.416C159.78 136.71 159.304 136.43 158.572 136.43C157.821 136.43 157.345 136.857 157.345 137.416C157.345 138.106 157.821 138.386 158.92 138.813L159.56 139.059C161.739 139.897 162.965 140.752 162.965 142.674C162.965 144.745 161.153 145.878 158.718 145.878C156.339 145.878 154.801 144.86 154.05 143.529" fill="black"/>
</g>
<path d="M106.452 143.303C104.805 143.312 103.379 143.702 102.183 144.282C101.741 143.421 101.3 142.669 101.226 142.107C101.143 141.455 101.042 141.057 101.143 140.278C101.245 139.498 101.705 138.393 101.705 138.303C101.695 138.221 101.603 137.823 100.656 137.813C99.7082 137.804 98.8893 137.995 98.7973 138.239C98.7052 138.484 98.5212 139.045 98.4016 139.625C98.236 140.477 96.5064 143.493 95.5219 145.079C95.1999 144.463 94.9239 143.919 94.8686 143.484C94.7859 142.832 94.6846 142.433 94.7859 141.654C94.8871 140.875 95.3471 139.77 95.3471 139.68C95.3379 139.598 95.2459 139.199 94.2983 139.19C93.3506 139.181 92.5319 139.372 92.4399 139.616C92.3479 139.861 92.2467 140.441 92.0442 141.002C91.8509 141.564 89.5508 146.601 88.9528 147.914C88.6492 148.584 88.3825 149.119 88.1892 149.481C87.996 149.844 88.18 149.508 88.1616 149.545C87.996 149.853 87.904 150.025 87.904 150.025V150.034C87.7752 150.26 87.6372 150.478 87.5727 150.478C87.5267 150.478 87.4347 149.871 87.5911 149.037C87.9315 147.289 88.7595 144.562 88.7504 144.463C88.7504 144.417 88.9067 143.937 88.2167 143.693C87.5451 143.448 87.3059 143.856 87.2507 143.856C87.1954 143.856 87.1494 144.001 87.1494 144.001C87.1494 144.001 87.8947 140.93 85.7234 140.93C84.3617 140.93 82.4848 142.388 81.5556 143.72C80.9668 144.037 79.7155 144.707 78.3907 145.423C77.8846 145.695 77.3602 145.985 76.8634 146.247L76.7623 146.139C74.131 143.376 69.2639 141.419 69.4664 137.705C69.54 136.355 70.0184 132.795 78.8141 128.483C86.018 124.95 91.7866 125.919 92.7894 128.075C94.2155 131.155 89.7073 136.88 82.2182 137.705C79.3661 138.022 77.8663 136.935 77.4892 136.527C77.0936 136.101 77.0384 136.083 76.8912 136.165C76.652 136.292 76.7992 136.672 76.8912 136.899C77.112 137.469 78.032 138.484 79.5961 138.991C80.9669 139.435 84.3159 139.68 88.3641 138.14C92.8999 136.409 96.442 131.608 95.4024 127.595C94.3444 123.51 87.4624 122.169 80.9578 124.443C77.0843 125.801 72.8889 127.921 69.8712 130.702C66.283 134 65.7126 136.88 65.9518 138.076C66.7891 142.343 72.7601 145.124 75.1522 147.18C75.0326 147.244 74.9222 147.307 74.821 147.361C73.6249 147.941 69.0707 150.287 67.9299 152.77C66.6418 155.578 68.1323 157.598 69.1259 157.87C72.1989 158.712 75.3454 157.199 77.0475 154.708C78.7403 152.217 78.538 148.983 77.7559 147.506L77.7282 147.452L78.6667 146.909C79.274 146.555 79.872 146.229 80.3963 145.948C80.102 146.736 79.8903 147.669 79.78 149.028C79.6512 150.623 80.3136 152.688 81.1877 153.503C81.5741 153.857 82.0341 153.866 82.3193 153.866C83.3314 153.866 83.7914 153.041 84.2974 152.054C84.923 150.849 85.4751 149.454 85.4751 149.454C85.4751 149.454 84.785 153.232 86.6711 153.232C87.3612 153.232 88.0512 152.353 88.364 151.9V151.909C88.364 151.909 88.3824 151.882 88.4192 151.818C88.4578 151.762 88.4946 151.705 88.5296 151.646V151.628C88.8056 151.157 89.422 150.079 90.3421 148.295C91.5288 145.994 92.6698 143.113 92.6698 143.113C92.6698 143.113 92.7802 143.819 93.1206 144.979C93.3229 145.668 93.7645 146.419 94.105 147.153C93.8289 147.534 93.6633 147.751 93.6633 147.751L93.6725 147.76C93.4518 148.05 93.2033 148.358 92.9458 148.666C92.0074 149.771 90.8849 151.031 90.7377 151.393C90.5629 151.819 90.5997 152.136 90.9401 152.389C91.1885 152.571 91.6301 152.607 92.0994 152.571C92.9458 152.516 93.5346 152.308 93.829 152.181C94.2891 152.018 94.8135 151.773 95.3195 151.411C96.2395 150.741 96.8008 149.789 96.7456 148.521C96.718 147.824 96.488 147.135 96.2027 146.483C96.2855 146.365 96.3684 146.247 96.4512 146.121C97.9048 144.028 99.0273 141.727 99.0273 141.727C99.0273 141.727 99.1377 142.434 99.4781 143.593C99.6528 144.182 100.003 144.825 100.315 145.459C98.9537 146.556 98.098 147.824 97.8036 148.657C97.2608 150.197 97.684 150.895 98.4844 151.058C98.8432 151.13 99.3585 150.967 99.7448 150.804C100.223 150.65 100.803 150.387 101.337 149.998C102.257 149.328 103.14 148.394 103.094 147.135C103.066 146.556 102.91 145.985 102.698 145.441C103.857 144.97 105.357 144.698 107.262 144.925C111.356 145.396 112.165 147.914 112.009 148.965C111.853 150.016 110.997 150.596 110.712 150.777C110.427 150.949 110.335 151.013 110.362 151.139C110.399 151.33 110.528 151.32 110.776 151.284C111.117 151.23 112.929 150.424 113.003 148.485C113.113 145.994 110.712 143.276 106.452 143.303ZM74.8762 153.784C73.5237 155.243 71.6193 155.795 70.8096 155.324C69.9356 154.826 70.2759 152.679 71.9413 151.13C72.9533 150.188 74.269 149.318 75.1338 148.784C75.327 148.666 75.6214 148.494 75.971 148.285C76.0262 148.249 76.063 148.231 76.063 148.231C76.1275 148.195 76.2011 148.15 76.2747 148.104C76.8911 150.315 76.3023 152.253 74.8762 153.784ZM84.7666 147.162C84.2974 148.295 83.3038 151.202 82.7057 151.039C82.1904 150.903 81.8777 148.702 82.6044 146.528C82.9725 145.432 83.7545 144.127 84.2145 143.62C84.9598 142.805 85.7694 142.533 85.9719 142.868C86.2111 143.303 85.061 146.456 84.7666 147.162ZM92.9274 151.003C92.725 151.103 92.541 151.175 92.4582 151.121C92.3938 151.085 92.5409 150.949 92.5409 150.949C92.5409 150.949 93.5621 149.871 93.9669 149.373C94.197 149.083 94.473 148.748 94.7674 148.367V148.476C94.7675 149.78 93.4978 150.65 92.9274 151.003ZM99.2204 149.59C99.0732 149.481 99.0917 149.146 99.5884 148.095C99.7817 147.679 100.223 146.981 100.987 146.32C101.079 146.591 101.134 146.854 101.125 147.099C101.116 148.729 99.9381 149.336 99.2204 149.59Z" fill="#CF649A"/>
<g clip-path="url(#clip1)">
<path d="M121.997 222.525L119.966 202.03H142.28L140.247 222.522L131.109 224.802L121.997 222.525Z" fill="#E44D26"/>
<path d="M131.123 223.059L138.506 221.217L140.244 203.706H131.123V223.059Z" fill="#F16529"/>
<path d="M131.123 211.307H127.427L127.171 208.733H131.123V206.219H124.118L124.185 206.894L124.872 213.821H131.123V211.307ZM131.123 217.835L131.111 217.838L128 217.082L127.801 215.078H124.997L125.388 219.024L131.11 220.454L131.123 220.451V217.835Z" fill="#EBEBEB"/>
<path d="M122.042 196.46H123.462V197.723H124.76V196.46H126.18V200.282H124.76V199.003H123.462V200.282H122.042L122.042 196.46ZM128.047 197.728H126.797V196.46H130.717V197.728H129.467V200.282H128.047V197.728H128.047ZM131.339 196.46H132.819L133.73 197.803L134.639 196.46H136.12V200.282H134.706V198.388L133.729 199.747H133.705L132.728 198.388V200.282H131.339V196.46H131.339ZM136.826 196.46H138.246V199.019H140.243V200.282H136.826V196.46Z" fill="black"/>
<path d="M131.113 211.307V213.821H134.553L134.229 217.081L131.113 217.837V220.452L136.84 219.024L136.882 218.6L137.538 211.982L137.606 211.307H136.854H131.113ZM131.113 206.219V208.733H137.861L137.917 208.168L138.044 206.894L138.111 206.219H131.113Z" fill="white"/>
</g>
<path fill-rule="evenodd" clip-rule="evenodd" d="M109.546 175.151C109.487 175.168 109.427 175.356 109.427 175.459C109.415 176.145 109.404 177.961 109.404 179.195C109.404 179.229 109.439 179.298 109.475 179.298C109.652 179.315 110.079 179.332 110.447 179.332C110.957 179.332 111.253 179.229 111.419 179.126C111.846 178.818 112.047 178.149 112.047 177.412C112.047 175.751 111.241 175.117 110.044 175.117C109.961 175.1 109.724 175.1 109.546 175.151ZM112.605 182.81C112.605 181.114 111.739 180.171 110.174 180.171C110.103 180.171 109.605 180.154 109.486 180.188C109.451 180.206 109.404 180.24 109.404 180.291C109.404 181.508 109.392 183.444 109.427 184.198C109.451 184.524 109.617 184.986 109.819 185.123C110.032 185.295 110.518 185.329 110.85 185.329C111.786 185.329 112.605 184.575 112.605 182.81ZM107.127 174.209C107.246 174.209 107.601 174.26 108.514 174.26C109.38 174.26 110.067 174.226 110.909 174.226C111.94 174.226 113.363 174.757 113.363 176.984C113.363 178.081 112.83 178.955 112.13 179.383C112.095 179.4 112.095 179.435 112.13 179.452C113.126 179.812 114.003 180.703 114.003 182.382C114.003 184.027 113.292 185.072 112.261 185.723C111.632 186.117 110.85 186.254 110.056 186.254C109.451 186.254 107.827 186.151 106.926 186.186C106.831 186.134 107.009 185.517 107.092 185.415C107.305 185.397 107.471 185.38 107.696 185.277C108.017 185.158 108.052 185.02 108.099 184.318C108.123 183.718 108.123 181.593 108.123 180.086C108.123 178.012 108.135 176.607 108.123 175.922C108.111 175.391 107.981 175.219 107.72 175.117C107.518 175.065 107.187 174.997 106.914 174.945C106.854 174.86 107.056 174.277 107.127 174.209ZM100.287 184.866C100.571 185.192 101.128 185.329 101.626 185.329C102.267 185.329 102.907 185.158 103.523 184.352C104.152 183.53 104.59 182.262 104.59 180.24C104.59 178.304 104.08 176.727 103.037 175.802C102.444 175.271 101.686 175.048 100.808 175.048C100.548 175.048 100.299 175.065 100.145 175.168C100.109 175.202 100.026 175.356 100.026 175.442C100.002 175.785 100.002 178.424 100.002 179.966C100.002 181.559 100.002 183.787 100.026 184.044C100.026 184.301 100.109 184.695 100.287 184.866H100.287ZM97.5955 174.208C97.8208 174.208 98.6862 174.26 99.1011 174.26C99.8482 174.26 100.382 174.209 101.792 174.209C102.978 174.209 103.974 174.671 104.685 175.545C105.55 176.624 106.001 178.115 106.001 179.931C106.001 182.519 105.183 184.01 104.365 184.866C103.547 185.74 102.48 186.254 100.963 186.254C100.156 186.254 98.7693 186.22 97.6192 186.203H97.6074C97.5482 186.049 97.7022 185.449 97.797 185.432C98.1054 185.38 98.1884 185.363 98.3425 185.278C98.5914 185.14 98.6389 184.952 98.6745 184.318C98.7099 183.136 98.6981 181.714 98.6981 180.103C98.6981 178.955 98.7099 176.71 98.6862 175.99C98.6507 175.391 98.4729 175.237 98.1172 175.134C97.9394 175.082 97.7022 175.014 97.3704 174.962C97.3229 174.842 97.5362 174.311 97.5955 174.209V174.208Z" fill="#8E714E"/>
<path fill-rule="evenodd" clip-rule="evenodd" d="M83.2506 185.534C82.9542 185.483 82.7409 185.415 82.4801 185.243C82.4445 185.209 82.3851 185.038 82.3851 184.969C82.3615 184.369 82.3615 182.656 82.3615 181.508C82.3615 180.583 82.2549 179.777 81.9821 179.212C81.662 178.561 81.1997 178.184 80.6069 178.184C80.0853 178.184 79.3858 178.698 78.8048 179.417C78.793 179.435 78.6982 179.555 78.71 179.366C78.71 179.178 78.7338 178.801 78.7456 178.543C78.7576 178.304 78.6626 178.184 78.6626 178.184C78.2833 178.458 77.2163 178.818 76.825 178.869C76.5406 178.955 76.4694 179.349 76.7659 179.486H76.7777C77.0976 179.623 77.3111 179.777 77.477 179.932C77.5956 180.069 77.5837 180.257 77.5837 180.411C77.5956 181.696 77.5956 183.667 77.5601 184.746C77.5483 185.175 77.4653 185.329 77.2518 185.397L77.2755 185.38C77.1096 185.432 76.9792 185.483 76.7776 185.517C76.7064 185.62 76.7064 186.169 76.7776 186.288C76.908 186.288 77.5956 186.237 78.1648 186.237C78.9472 186.237 79.3503 186.288 79.5518 186.288C79.6347 186.151 79.6585 185.637 79.6111 185.517C79.3858 185.5 79.2198 185.466 79.0658 185.397C78.8524 185.329 78.793 185.175 78.7811 184.815C78.7576 183.907 78.7576 181.988 78.7576 180.685C78.7576 180.326 78.8286 180.154 78.8996 180.051C79.1724 179.709 79.6111 179.469 80.0023 179.469C80.3817 179.469 80.6305 179.64 80.8203 179.863C81.081 180.171 81.164 180.617 81.1996 180.942C81.2588 181.679 81.2352 183.136 81.2352 184.404C81.2352 185.089 81.1996 185.26 81.0219 185.346C80.9388 185.397 80.7254 185.466 80.4765 185.5C80.3935 185.62 80.4172 186.151 80.4765 186.271C80.8203 186.271 81.2234 186.22 81.8161 186.22C82.5511 186.22 83.0254 186.271 83.2152 186.271C83.2743 186.169 83.298 185.672 83.2506 185.534ZM86.5345 178.989C85.9063 178.989 85.515 179.692 85.515 180.788C85.515 181.902 85.8588 183.187 86.8309 183.187C86.9969 183.187 87.3052 183.084 87.4473 182.844C87.6727 182.536 87.8268 181.919 87.8268 181.268C87.8268 179.846 87.3407 178.989 86.5345 178.989V178.989ZM86.4516 186.563C86.2145 186.563 86.0484 186.665 85.9418 186.751C85.4438 187.214 85.2186 187.659 85.2186 188.191C85.2186 188.687 85.349 189.081 85.6336 189.424C85.9774 189.852 86.4516 190.058 87.0561 190.058C88.2654 190.058 88.7989 189.116 88.7989 188.191C88.7989 187.539 88.5736 187.111 88.1114 186.871C87.7794 186.665 87.1748 186.563 86.4516 186.563ZM86.5345 191.018C85.8114 191.018 85.2897 190.795 84.8393 190.298C84.4006 189.818 84.2109 189.099 84.2109 188.602C84.2109 188.465 84.2347 188.088 84.4481 187.745C84.5784 187.539 84.863 187.145 85.5388 186.477C85.5624 186.46 85.5742 186.443 85.5742 186.408C85.5742 186.374 85.5505 186.34 85.5268 186.323C84.9697 186.014 84.8037 185.517 84.7562 185.243V185.209C84.7445 185.106 84.7207 185.003 84.8275 184.901C84.9104 184.815 85.029 184.712 85.1593 184.592C85.3609 184.421 85.5742 184.232 85.7046 184.078C85.7284 184.044 85.7284 184.01 85.7284 183.975C85.7284 183.941 85.7046 183.907 85.6809 183.89C84.8512 183.496 84.4363 182.604 84.4363 181.268C84.4363 180.394 84.7089 179.606 85.1949 179.109C85.5268 178.732 86.3567 178.269 86.9021 178.269H86.9377C87.4949 178.286 87.803 178.458 88.2416 178.681C88.4788 178.801 88.7041 178.852 89.0125 178.852C89.4747 178.852 89.6763 178.646 89.8421 178.407C89.8541 178.441 89.8778 178.527 89.8896 178.749C89.9015 178.972 89.8541 179.298 89.7355 179.537C89.6407 179.726 89.4273 179.863 89.2139 179.863H89.1545C88.9412 179.829 88.8462 179.794 88.8462 179.794L88.7989 179.829C88.7871 179.863 88.7989 179.897 88.8108 179.949L88.8227 179.983C88.8463 180.137 88.8938 180.6 88.8938 180.72C88.8938 182.125 88.5026 182.741 88.0876 183.204C87.6845 183.633 87.2222 183.907 86.7005 183.975C86.6887 183.975 86.6414 183.975 86.5345 183.992C86.4753 183.992 86.3923 184.01 86.3804 184.01H86.3686C86.2738 184.044 86.0367 184.215 86.0367 184.506C86.0367 184.763 86.1434 185.072 86.6531 185.123C86.7598 185.14 86.8664 185.14 86.9851 185.158C87.6608 185.226 88.5026 185.312 88.8938 185.5C89.4391 185.791 89.7829 186.494 89.7829 187.334C89.7829 188.602 89.1547 189.784 88.1114 190.521C87.6016 190.846 87.0917 191.018 86.5345 191.018ZM93.292 179.075C93.0432 179.075 92.8178 179.16 92.6518 179.332C92.1896 179.743 91.9525 180.566 91.9525 181.765C91.9525 184.01 92.7348 185.586 93.8493 185.586C94.1813 185.586 94.4421 185.449 94.6673 185.175C95.011 184.763 95.189 183.941 95.189 182.793C95.189 180.566 94.4183 179.075 93.2921 179.075L93.292 179.075ZM93.5055 186.408C91.4901 186.408 90.767 184.267 90.767 182.262C90.767 180.857 91.1581 179.777 91.9405 179.006C92.4978 178.509 93.1617 178.235 93.7545 178.235C95.2956 178.235 96.3745 179.829 96.3745 182.125C96.3745 183.684 95.9477 184.918 95.1296 185.672C94.7384 186.049 94.0627 186.408 93.5054 186.408H93.5055ZM72.3793 179.075C72.1304 179.075 71.9052 179.16 71.739 179.332C71.2768 179.743 71.0397 180.566 71.0397 181.765C71.0397 184.01 71.822 185.586 72.9365 185.586C73.2685 185.586 73.5293 185.449 73.7546 185.175C74.0982 184.763 74.2762 183.941 74.2762 182.793C74.2762 180.566 73.5174 179.075 72.3793 179.075ZM72.5927 186.408C70.5773 186.408 69.8542 184.267 69.8542 182.262C69.8542 180.857 70.2453 179.777 71.0277 179.006C71.585 178.509 72.2489 178.235 72.8417 178.235C74.3829 178.235 75.4617 179.829 75.4617 182.125C75.4617 183.684 75.0349 184.918 74.2168 185.672C73.8375 186.049 73.1617 186.408 72.5927 186.408ZM59.0421 186.237C59.0183 186.186 58.9945 186.032 59.0065 185.843C59.0065 185.706 59.0303 185.62 59.0421 185.586C59.2911 185.534 59.4215 185.483 59.5637 185.432C59.8008 185.346 59.8956 185.158 59.9074 184.729C59.9432 183.701 59.9432 181.748 59.9312 180.394V180.36C59.9312 180.206 59.9312 180.017 59.8008 179.88C59.6111 179.709 59.3859 179.555 59.0895 179.434C58.9829 179.383 58.9117 179.298 58.9235 179.195C58.9235 179.092 58.9947 178.972 59.1488 178.938C59.54 178.886 60.5594 178.527 60.9626 178.269C60.9863 178.304 61.0219 178.407 61.0219 178.544L61.0101 178.732C60.9982 178.921 60.9863 179.143 60.9863 179.366C60.9863 179.435 61.0339 179.486 61.0811 179.486C61.1049 179.486 61.1287 179.469 61.1523 179.452C61.911 178.595 62.5986 178.286 62.9542 178.286C63.5353 178.286 63.9858 178.681 64.3296 179.503C64.3532 179.555 64.377 179.572 64.4126 179.572C64.4362 179.572 64.4717 179.555 64.4836 179.52C65.1832 178.749 65.8827 178.286 66.3449 178.286C67.4474 178.286 68.0995 179.469 68.0995 181.474C68.0995 182.039 68.0995 182.776 68.0877 183.444C68.0877 184.044 68.0759 184.592 68.0759 184.986C68.0759 185.072 68.1587 185.346 68.2891 185.397C68.4551 185.517 68.6805 185.569 68.9768 185.637H68.9887C69.0124 185.757 68.965 186.203 68.9176 186.288C68.8464 186.288 68.7397 186.288 68.6212 186.271C68.3211 186.249 68.0207 186.237 67.7202 186.237C66.9852 186.237 66.6058 186.254 66.2381 186.288C66.2146 186.151 66.2027 185.74 66.2381 185.637C66.4517 185.586 66.5583 185.534 66.6888 185.483C66.926 185.38 66.9852 185.226 66.9971 184.781C66.9971 184.455 67.0444 181.679 66.9732 181.011C66.9022 180.326 66.5465 179.52 65.764 179.52C65.4676 179.52 65.0054 179.692 64.5548 180.188C64.5312 180.223 64.5073 180.308 64.5073 180.36V180.377C64.5548 180.737 64.5548 181.148 64.5548 181.782V182.896C64.5548 183.667 64.5429 184.387 64.5548 184.935C64.5548 185.312 64.709 185.397 64.8394 185.466C64.9105 185.483 64.9578 185.5 65.0172 185.517C65.1238 185.552 65.2306 185.586 65.3965 185.637C65.4203 185.706 65.4203 185.929 65.3847 186.117C65.3728 186.22 65.349 186.271 65.3372 186.288C64.9342 186.271 64.5192 186.254 63.9147 186.254C63.7368 186.254 63.4285 186.271 63.1677 186.271C62.9542 186.271 62.7528 186.288 62.6343 186.288C62.6224 186.254 62.5986 186.134 62.5986 185.946C62.5986 185.792 62.6224 185.672 62.6461 185.637C62.7054 185.62 62.7528 185.603 62.8121 185.603C62.9542 185.569 63.0729 185.534 63.1914 185.5C63.3931 185.415 63.4641 185.26 63.4759 184.883C63.5115 184.027 63.5471 181.577 63.4641 180.96C63.3219 179.966 62.9307 179.469 62.3022 179.469C61.9348 179.469 61.4723 179.726 61.0931 180.137C61.0337 180.206 60.9863 180.377 60.9863 180.531V181.542C60.9863 182.776 60.9863 184.318 60.9981 184.986C61.0101 185.192 61.0574 185.432 61.3301 185.517C61.3895 185.534 61.4843 185.569 61.6029 185.586L61.8161 185.637C61.84 185.74 61.8281 186.151 61.7807 186.288C61.6621 186.288 61.5199 186.271 61.3538 186.271C61.1049 186.254 60.7848 186.237 60.4292 186.237C60.0142 186.237 59.7178 186.254 59.4807 186.271C59.3147 186.237 59.1843 186.237 59.0421 186.237Z" fill="#442D22"/>
<path fill-rule="evenodd" clip-rule="evenodd" d="M52.806 190.349L52.32 190.109C52.32 190.109 52.3794 186.528 51.4901 186.271C50.8975 185.277 51.5852 144.12 53.7191 186.134C53.7191 186.134 52.984 186.665 52.8536 187.574C52.7112 188.465 52.806 190.349 52.806 190.349Z" fill="white"/>
<path fill-rule="evenodd" clip-rule="evenodd" d="M52.806 190.349L52.32 190.109C52.32 190.109 52.3794 186.528 51.4901 186.271C50.8975 185.277 51.5852 144.12 53.7191 186.134C53.7191 186.134 52.984 186.665 52.8536 187.574C52.7112 188.465 52.806 190.349 52.806 190.349Z" fill="#A6A385"/>
<path fill-rule="evenodd" clip-rule="evenodd" d="M53.067 186.888C53.067 186.888 57.3231 182.844 56.3271 174.431C55.367 168.314 53.1026 166.31 52.8536 165.538C52.581 164.99 52.3201 164.031 52.3201 164.031L52.498 181.045C52.498 181.062 52.1305 186.254 53.0671 186.888" fill="white"/>
<path fill-rule="evenodd" clip-rule="evenodd" d="M53.067 186.888C53.067 186.888 57.3231 182.844 56.3271 174.431C55.367 168.314 53.1026 166.31 52.8536 165.538C52.581 164.99 52.3201 164.031 52.3201 164.031L52.498 181.045C52.498 181.062 52.1305 186.254 53.0671 186.888" fill="#499D4A"/>
<path fill-rule="evenodd" clip-rule="evenodd" d="M52.0712 187.111C52.0712 187.111 48.0758 183.17 48.313 176.231C48.5382 169.291 51.3597 165.881 51.9051 165.264C52.2608 164.716 52.2726 164.51 52.2964 163.962C52.5454 164.733 52.498 175.494 52.5334 176.762C52.64 181.645 52.3438 186.186 52.0712 187.111Z" fill="white"/>
<path fill-rule="evenodd" clip-rule="evenodd" d="M52.0712 187.111C52.0712 187.111 48.0758 183.17 48.313 176.231C48.5382 169.291 51.3597 165.881 51.9051 165.264C52.2608 164.716 52.2726 164.51 52.2964 163.962C52.5454 164.733 52.498 175.494 52.5334 176.762C52.64 181.645 52.3438 186.186 52.0712 187.111Z" fill="#58AA50"/>
<g clip-path="url(#clip2)">
<path d="M162.813 181.343C162.813 183.476 165.301 185.468 169.223 186.59C168.44 189.891 169.083 192.552 171.23 193.589C173.437 194.655 176.725 193.917 179.846 191.633C182.888 193.825 185.963 194.687 188.108 193.647C190.313 192.579 190.984 189.737 190.179 186.333C194.264 185.202 196.549 183.504 196.549 181.343C196.549 179.26 194.057 177.457 190.187 176.342C191.054 172.797 190.32 170.201 188.083 169.121C185.928 168.08 182.817 168.987 179.731 171.236C176.519 168.849 173.44 168.12 171.206 169.203C169.052 170.247 168.437 172.956 169.223 176.318C165.433 177.425 162.813 179.268 162.813 181.343Z" fill="white"/>
<path d="M189.368 177.449C189.049 177.358 188.727 177.273 188.403 177.195C188.457 177.012 188.507 176.828 188.552 176.644C189.282 173.677 188.805 171.287 187.175 170.5C185.612 169.745 183.056 170.532 180.474 172.413C180.22 172.599 179.971 172.79 179.728 172.986C179.566 172.855 179.4 172.727 179.232 172.602C176.526 170.591 173.814 169.743 172.186 170.532C170.624 171.289 170.162 173.537 170.819 176.348C170.884 176.627 170.958 176.904 171.041 177.179C170.657 177.271 170.286 177.368 169.932 177.471C166.76 178.397 164.734 179.848 164.734 181.353C164.734 182.908 166.908 184.467 170.212 185.413C170.48 185.489 170.75 185.56 171.023 185.625C170.934 185.921 170.856 186.22 170.787 186.52C170.161 189.283 170.65 191.477 172.207 192.23C173.816 193.006 176.515 192.208 179.144 190.284C179.352 190.132 179.561 189.971 179.77 189.802C180.033 190.014 180.303 190.22 180.579 190.42C183.126 192.255 185.641 192.996 187.197 192.241C188.804 191.463 189.326 189.106 188.648 186.238C188.596 186.019 188.536 185.795 188.468 185.567C188.658 185.521 188.844 185.472 189.025 185.422C192.46 184.469 194.695 182.929 194.695 181.353C194.695 179.843 192.604 178.382 189.368 177.449Z" fill="#53C1DE"/>
<path d="M188.623 184.405C188.459 184.45 188.291 184.494 188.119 184.537C187.74 183.532 187.228 182.463 186.602 181.359C187.2 180.281 187.692 179.226 188.06 178.227C188.367 178.302 188.664 178.38 188.951 178.463C191.724 179.262 193.415 180.443 193.415 181.353C193.415 182.323 191.588 183.582 188.623 184.405H188.623ZM187.392 186.446C187.692 187.714 187.735 188.861 187.536 189.757C187.358 190.562 186.999 191.099 186.555 191.314C185.611 191.772 183.592 191.177 181.414 189.608C181.165 189.428 180.913 189.236 180.661 189.033C181.505 188.26 182.349 187.361 183.172 186.363C184.621 186.255 185.989 186.079 187.23 185.839C187.291 186.046 187.345 186.248 187.392 186.446ZM174.948 191.235C174.026 191.508 173.291 191.515 172.847 191.301C171.902 190.845 171.509 189.083 172.045 186.72C172.108 186.441 172.181 186.163 172.264 185.887C173.491 186.115 174.849 186.278 176.301 186.377C177.13 187.353 177.998 188.251 178.873 189.037C178.687 189.188 178.497 189.334 178.302 189.477C177.14 190.328 175.975 190.931 174.948 191.235H174.948ZM170.626 184.399C169.165 183.981 167.959 183.437 167.132 182.845C166.389 182.312 166.014 181.783 166.014 181.353C166.014 180.44 167.64 179.275 170.353 178.483C170.693 178.384 171.037 178.294 171.384 178.212C171.759 179.233 172.251 180.3 172.844 181.38C172.243 182.475 171.744 183.56 171.366 184.593C171.118 184.533 170.871 184.468 170.626 184.399ZM172.075 176.143C171.512 173.733 171.886 171.916 172.827 171.46C173.829 170.974 176.046 171.667 178.382 173.403C178.531 173.514 178.681 173.631 178.831 173.751C177.961 174.533 177.101 175.424 176.279 176.395C174.87 176.505 173.521 176.68 172.281 176.915C172.205 176.659 172.136 176.402 172.075 176.143V176.143ZM184.999 178.814C184.706 178.391 184.402 177.973 184.088 177.56C185.044 177.661 185.96 177.795 186.82 177.96C186.561 178.653 186.24 179.377 185.861 180.12C185.584 179.68 185.296 179.245 184.999 178.814ZM179.729 174.517C180.319 175.052 180.91 175.65 181.492 176.299C180.312 176.252 179.13 176.252 177.951 176.298C178.533 175.655 179.129 175.058 179.729 174.517ZM174.424 178.822C174.131 179.249 173.849 179.681 173.579 180.119C173.206 179.379 172.887 178.651 172.627 177.948C173.482 177.788 174.393 177.657 175.343 177.558C175.025 177.973 174.719 178.395 174.424 178.822ZM175.37 185.225C174.389 185.134 173.464 185.009 172.609 184.854C172.874 184.139 173.2 183.395 173.58 182.639C173.851 183.077 174.134 183.51 174.43 183.937C174.731 184.373 175.045 184.802 175.37 185.225ZM179.764 188.266C179.157 187.718 178.552 187.112 177.961 186.46C178.535 186.479 179.12 186.488 179.714 186.488C180.325 186.488 180.929 186.477 181.523 186.454C180.939 187.118 180.35 187.725 179.764 188.266ZM185.873 182.601C186.273 183.365 186.611 184.104 186.879 184.807C186.01 184.973 185.072 185.107 184.084 185.206C184.401 184.786 184.707 184.36 185.004 183.93C185.305 183.492 185.595 183.049 185.873 182.601ZM183.895 183.394C183.441 184.054 182.962 184.702 182.458 185.336C181.569 185.389 180.65 185.417 179.714 185.417C178.782 185.417 177.875 185.392 177.002 185.345C176.484 184.712 175.996 184.064 175.537 183.4C175.081 182.74 174.654 182.066 174.259 181.379C174.653 180.692 175.079 180.017 175.533 179.357V179.357C175.988 178.697 176.473 178.051 176.986 177.421C177.877 177.364 178.791 177.335 179.714 177.335C180.642 177.335 181.557 177.365 182.448 177.422C182.956 178.05 183.437 178.694 183.891 179.351C184.348 180.01 184.778 180.682 185.183 181.364C184.782 182.053 184.353 182.731 183.895 183.394H183.895ZM186.536 171.428C187.539 171.912 187.929 173.866 187.299 176.428C187.257 176.595 187.212 176.761 187.164 176.927C185.921 176.686 184.571 176.508 183.158 176.397C182.335 175.415 181.482 174.523 180.625 173.75C180.85 173.569 181.079 173.393 181.314 173.221C183.526 171.61 185.594 170.973 186.536 171.428Z" fill="white"/>
<path d="M179.714 179.114C181.192 179.114 182.39 180.116 182.39 181.353C182.39 182.591 181.192 183.593 179.714 183.593C178.237 183.593 177.039 182.591 177.039 181.353C177.039 180.116 178.237 179.114 179.714 179.114Z" fill="#53C1DE"/>
</g>
<path d="M327.505 267.255H216.775V275.204H327.505V267.255Z" fill="#455A64"/>
<g filter="url(#filter1_d)">
<path d="M440.835 273.784H72.1379V297.415H440.835V273.784Z" fill="#263238"/>
</g>
<defs>
<filter id="filter0_d" x="102.136" y="169.765" width="64.0976" height="88.0139" filterUnits="userSpaceOnUse" color-interpolation-filters="sRGB">
<feFlood flood-opacity="0" result="BackgroundImageFix"/>
<feColorMatrix in="SourceAlpha" type="matrix" values="0 0 0 0 0 0 0 0 0 0 0 0 0 0 0 0 0 0 127 0"/>
<feOffset dy="4"/>
<feGaussianBlur stdDeviation="2"/>
<feColorMatrix type="matrix" values="0 0 0 0 0 0 0 0 0 0 0 0 0 0 0 0 0 0 0.25 0"/>
<feBlend mode="normal" in2="BackgroundImageFix" result="effect1_dropShadow"/>
<feBlend mode="normal" in="SourceGraphic" in2="effect1_dropShadow" result="shape"/>
</filter>
<filter id="filter1_d" x="68.1379" y="273.784" width="376.697" height="31.6305" filterUnits="userSpaceOnUse" color-interpolation-filters="sRGB">
<feFlood flood-opacity="0" result="BackgroundImageFix"/>
<feColorMatrix in="SourceAlpha" type="matrix" values="0 0 0 0 0 0 0 0 0 0 0 0 0 0 0 0 0 0 127 0"/>
<feOffset dy="4"/>
<feGaussianBlur stdDeviation="2"/>
<feColorMatrix type="matrix" values="0 0 0 0 0 0 0 0 0 0 0 0 0 0 0 0 0 0 0.25 0"/>
<feBlend mode="normal" in2="BackgroundImageFix" result="effect1_dropShadow"/>
<feBlend mode="normal" in="SourceGraphic" in2="effect1_dropShadow" result="shape"/>
</filter>
<linearGradient id="paint0_linear" x1="202.464" y1="293.309" x2="196.449" y2="171.695" gradientUnits="userSpaceOnUse">
<stop stop-color="#D0DCEE" stop-opacity="0.87"/>
<stop offset="1" stop-color="#054986" stop-opacity="0"/>
<stop offset="1" stop-color="#054986" stop-opacity="0"/>
</linearGradient>
<linearGradient id="paint1_linear" x1="186.469" y1="219.893" x2="186.469" y2="215.448" gradientUnits="userSpaceOnUse">
<stop offset="0.387" stop-color="#D1D3D4" stop-opacity="0"/>
<stop offset="1" stop-color="#D1D3D4"/>
</linearGradient>
<linearGradient id="paint2_linear" x1="192.743" y1="217.676" x2="192.743" y2="213.055" gradientUnits="userSpaceOnUse">
<stop offset="0.387" stop-color="#D1D3D4" stop-opacity="0"/>
<stop offset="1" stop-color="#D1D3D4"/>
</linearGradient>
<linearGradient id="paint3_linear" x1="183.449" y1="221.876" x2="195.509" y2="221.876" gradientUnits="userSpaceOnUse">
<stop stop-color="#E8E7E5"/>
<stop offset="1" stop-color="white"/>
</linearGradient>
<linearGradient id="paint4_linear" x1="182.894" y1="214.186" x2="195.987" y2="214.186" gradientUnits="userSpaceOnUse">
<stop stop-color="#E8E7E5"/>
<stop offset="1" stop-color="white"/>
</linearGradient>
<linearGradient id="paint5_linear" x1="72.7971" y1="213.421" x2="68.5217" y2="220.545" gradientUnits="userSpaceOnUse">
<stop stop-color="#41873F"/>
<stop offset="0.3288" stop-color="#418B3D"/>
<stop offset="0.6352" stop-color="#419637"/>
<stop offset="0.9319" stop-color="#3FA92D"/>
<stop offset="1" stop-color="#3FAE2A"/>
</linearGradient>
<linearGradient id="paint6_linear" x1="70.4224" y1="217.287" x2="81.7581" y2="210.756" gradientUnits="userSpaceOnUse">
<stop offset="0.1376" stop-color="#41873F"/>
<stop offset="0.4032" stop-color="#54A044"/>
<stop offset="0.7136" stop-color="#66B848"/>
<stop offset="0.9081" stop-color="#6CC04A"/>
</linearGradient>
<linearGradient id="paint7_linear" x1="66.1561" y1="216.744" x2="75.9831" y2="216.744" gradientUnits="userSpaceOnUse">
<stop offset="0.09192" stop-color="#6CC04A"/>
<stop offset="0.2864" stop-color="#66B848"/>
<stop offset="0.5968" stop-color="#54A044"/>
<stop offset="0.8624" stop-color="#41873F"/>
</linearGradient>
<linearGradient id="paint8_linear" x1="66.1557" y1="220.585" x2="75.9825" y2="220.585" gradientUnits="userSpaceOnUse">
<stop offset="0.09192" stop-color="#6CC04A"/>
<stop offset="0.2864" stop-color="#66B848"/>
<stop offset="0.5968" stop-color="#54A044"/>
<stop offset="0.8624" stop-color="#41873F"/>
</linearGradient>
<linearGradient id="paint9_linear" x1="77.4141" y1="213.202" x2="75.1919" y2="225.551" gradientUnits="userSpaceOnUse">
<stop stop-color="#41873F"/>
<stop offset="0.3288" stop-color="#418B3D"/>
<stop offset="0.6352" stop-color="#419637"/>
<stop offset="0.9319" stop-color="#3FA92D"/>
<stop offset="1" stop-color="#3FAE2A"/>
</linearGradient>
<clipPath id="clip0">
<rect width="27.2719" height="24.479" fill="white" transform="translate(136.31 127.984)"/>
</clipPath>
<clipPath id="clip1">
<rect width="22.3134" height="28.3441" fill="white" transform="translate(119.966 196.459)"/>
</clipPath>
<clipPath id="clip2">
<rect width="33.9458" height="25.5331" fill="white" transform="translate(162.713 168.604)"/>
</clipPath>
</defs>
</svg>
