<svg width="26" height="22" viewBox="0 0 26 22" fill="none" xmlns="http://www.w3.org/2000/svg">
<path d="M20.8597 14.3899C20.7089 14.437 20.554 14.4825 20.3963 14.5266C20.0471 13.4841 19.5757 12.3755 18.9992 11.2303C19.5495 10.1121 20.0025 9.01777 20.3419 7.98194C20.6241 8.0591 20.8981 8.14028 21.1621 8.22607C23.7153 9.05485 25.2726 10.2805 25.2726 11.2247C25.2726 12.2306 23.5906 13.5365 20.8598 14.3899H20.8597ZM19.7265 16.5075C20.0026 17.8228 20.0421 19.012 19.8591 19.9417C19.6948 20.777 19.3644 21.3339 18.9558 21.557C18.0863 22.0316 16.2268 21.4146 14.2216 19.7873C13.9917 19.6007 13.7601 19.4015 13.5279 19.1908C14.3053 18.3888 15.0822 17.4565 15.8405 16.4213C17.1743 16.3097 18.4345 16.1271 19.5772 15.8781C19.6334 16.0923 19.6834 16.3022 19.7265 16.5075ZM8.26717 21.475C7.41769 21.7579 6.74112 21.766 6.3322 21.5436C5.46185 21.0703 5.10018 19.2428 5.5936 16.7917C5.65227 16.502 5.71945 16.214 5.79507 15.9278C6.92513 16.1635 8.17608 16.3332 9.51311 16.4354C10.2764 17.4484 11.0758 18.3796 11.8814 19.195C11.7102 19.3512 11.5349 19.5034 11.3558 19.6515C10.2853 20.534 9.21261 21.16 8.26729 21.475H8.26717ZM4.28746 14.3837C2.94213 13.95 1.83111 13.3864 1.06955 12.7715C0.385286 12.2188 0.0397339 11.67 0.0397339 11.2247C0.0397339 10.2773 1.53757 9.06878 4.03568 8.24738C4.34923 8.14473 4.6659 8.05076 4.98528 7.96559C5.33059 9.02468 5.78347 10.132 6.33 11.2518C5.77638 12.3883 5.31703 13.5132 4.96855 14.5848C4.73981 14.523 4.51271 14.456 4.28746 14.3837ZM5.62156 5.81955C5.10298 3.32032 5.44732 1.4351 6.31388 0.962044C7.23698 0.458122 9.27793 1.17669 11.4291 2.97808C11.5666 3.09323 11.7047 3.2138 11.8431 3.33852C11.0416 4.15025 10.2495 5.07437 9.49284 6.08153C8.19525 6.19496 6.95309 6.37713 5.81118 6.62115C5.74084 6.35545 5.67761 6.08813 5.62156 5.81943V5.81955ZM17.5226 8.591C17.2529 8.15162 16.9731 7.71776 16.6836 7.28974C17.564 7.39453 18.4073 7.53387 19.1993 7.70442C18.9616 8.42311 18.6652 9.17461 18.3163 9.94501C18.0613 9.48873 17.7967 9.03731 17.5226 8.591ZM12.6693 4.13286C13.213 4.68826 13.7574 5.30849 14.293 5.98134C13.2066 5.93293 12.1184 5.9327 11.0321 5.98065C11.5681 5.31401 12.1172 4.69471 12.6693 4.13286ZM7.78498 8.5986C7.51433 9.04136 7.25466 9.49002 7.00621 9.9442C6.66297 9.17646 6.36932 8.42161 6.12951 7.69267C6.9167 7.5265 7.75616 7.39073 8.63079 7.28767C8.33801 7.71834 8.056 8.15544 7.78498 8.5986ZM8.65594 15.2411C7.75238 15.146 6.90022 15.0172 6.11327 14.8556C6.35686 14.1138 6.65699 13.3427 7.00755 12.5585C7.25705 13.013 7.51786 13.4619 7.78974 13.9049C8.06717 14.3567 8.35599 14.8023 8.65594 15.2411ZM12.702 18.3951C12.1433 17.8266 11.5862 17.1979 11.042 16.5216C11.5702 16.5411 12.1088 16.551 12.6562 16.551C13.2186 16.551 13.7745 16.5392 14.3216 16.5161C13.7844 17.2048 13.2419 17.8344 12.702 18.3951ZM18.3275 12.5185C18.6962 13.3112 19.0071 14.0782 19.254 14.8075C18.454 14.9796 17.5903 15.1183 16.6803 15.2212C16.9719 14.7852 17.2543 14.3438 17.5273 13.8972C17.8049 13.4433 18.0717 12.9836 18.3275 12.5185ZM16.5063 13.3419C16.0884 14.0266 15.647 14.6983 15.1827 15.3559C14.3641 15.4111 13.5182 15.4396 12.6562 15.4396C11.7977 15.4396 10.9625 15.4143 10.1582 15.3652C9.68191 14.709 9.23212 14.0362 8.80979 13.348C8.38943 12.6634 7.99679 11.9641 7.63272 11.2514C7.99587 10.5386 8.38732 9.83887 8.80625 9.15377V9.154C9.22505 8.46875 9.67129 7.79875 10.144 7.14545C10.9645 7.08695 11.8058 7.05632 12.6563 7.05632C13.5105 7.05632 14.3529 7.08718 15.1732 7.14614C15.6411 7.79844 16.0845 8.46611 16.5025 9.1479C16.9229 9.83147 17.3196 10.5278 17.6919 11.2357C17.3234 11.9508 16.928 12.6533 16.5064 13.3419H16.5063ZM18.9378 0.928994C19.8616 1.43153 20.2209 3.45793 19.6405 6.11538C19.6024 6.2885 19.5611 6.46095 19.5164 6.63266C18.3718 6.38358 17.1288 6.19818 15.8274 6.08302C15.0693 5.06493 14.2838 4.13919 13.4953 3.33794C13.7019 3.15007 13.9134 2.96707 14.1297 2.78911C16.1666 1.11727 18.0703 0.4572 18.9378 0.928994Z" fill="white"/>
</svg>
