<svg width="571" height="402" viewBox="0 0 571 402" fill="none" xmlns="http://www.w3.org/2000/svg">
<path d="M545.892 276.343C403.476 206.35 221.168 204.892 134.193 213.258C47.2183 221.623 7.89198 224.909 6.23683 255.27C-7.03994 310.712 323.798 271.312 186.74 344.46C54.7917 414.88 688.308 346.335 545.892 276.343Z" fill="#F2F2F2" fill-opacity="0.43"/>
<path d="M238.928 260.519H244.475C246.834 260.519 249.096 261.473 250.764 263.172C252.432 264.87 253.369 267.174 253.369 269.576V274.799H230.102V269.576C230.102 267.186 231.03 264.893 232.683 263.196C234.336 261.499 236.581 260.537 238.928 260.519Z" fill="#455A64"/>
<path d="M161.041 233.709L150.267 295.841H200.836L209.993 232.437L161.041 233.709Z" fill="#455A64"/>
<path d="M264.52 112.896H97.3865C89.7905 112.896 83.6326 119.167 83.6326 126.903V233.949C83.6326 241.685 89.7905 247.956 97.3865 247.956H264.52C272.116 247.956 278.273 241.685 278.273 233.949V126.903C278.273 119.167 272.116 112.896 264.52 112.896Z" fill="#263238"/>
<path d="M264.52 109.414H97.3865C89.7905 109.414 83.6326 115.685 83.6326 123.421V230.467C83.6326 238.203 89.7905 244.474 97.3865 244.474H264.52C272.116 244.474 278.274 238.203 278.274 230.467V123.421C278.274 115.685 272.116 109.414 264.52 109.414Z" fill="#455A64"/>
<path d="M434.406 131.465C453.075 131.465 470.979 138.484 484.182 150.979C497.385 163.474 504.806 180.421 504.812 198.094V275.379H364V198.094C364.006 180.421 371.426 163.474 384.629 150.979C397.832 138.484 415.737 131.465 434.406 131.465Z" fill="#455A64"/>
<path d="M256.87 235.85L249.848 240.495L242.046 258.003C242.046 258.003 244.164 259.336 245.802 257.919C247.441 256.503 253.705 246.327 253.705 246.327V252.347C253.713 253.528 254.183 254.665 255.027 255.544C255.871 256.423 257.03 256.983 258.286 257.117L269.855 260.492L284.055 256.711L285.27 240.922L256.87 235.85Z" fill="#C6A18E"/>
<path d="M434.406 77.6486L434.299 82.0671L433.235 148.124C433.118 155.792 425.405 161.812 415.916 161.637C406.341 161.462 398.543 155.046 398.522 147.295C398.522 139.158 398.288 130.597 398.288 130.597C398.288 130.597 386.181 128.857 383.67 115.187C382.426 108.394 382.819 97.2465 383.479 88.1333C383.62 86.1894 384.214 84.2903 385.225 82.5501C386.237 80.81 387.644 79.2649 389.364 78.0077C391.083 76.7505 393.079 75.8071 395.23 75.2345C397.382 74.6618 399.645 74.4716 401.883 74.6753L434.406 77.6486Z" fill="#C6A18E"/>
<path d="M383.655 98.696C383.652 99.214 383.864 99.713 384.246 100.088C384.629 100.463 385.152 100.685 385.706 100.706C385.98 100.732 386.256 100.705 386.519 100.628C386.781 100.551 387.024 100.425 387.232 100.257C387.441 100.09 387.61 99.8843 387.731 99.6535C387.852 99.4227 387.922 99.1714 387.935 98.9147C387.94 98.6554 387.889 98.3977 387.787 98.1567C387.684 97.9156 387.532 97.6958 387.338 97.5099C387.145 97.3241 386.913 97.1759 386.658 97.0738C386.403 96.9717 386.129 96.9177 385.851 96.915C385.581 96.8937 385.309 96.9232 385.051 97.0018C384.794 97.0804 384.556 97.2064 384.351 97.3724C384.146 97.5384 383.979 97.7411 383.86 97.9684C383.74 98.1958 383.671 98.4431 383.655 98.696V98.696Z" fill="#263238"/>
<path d="M383.198 96.4775C383.455 96.7379 385.071 95.6235 387.356 95.6339C389.641 95.6443 391.313 96.6754 391.558 96.4462C391.803 96.2171 391.413 95.863 390.677 95.4047C389.694 94.7724 388.527 94.4346 387.333 94.4362C386.128 94.4362 384.954 94.8016 383.99 95.4777C383.31 95.8734 383.065 96.3629 383.198 96.4775Z" fill="#263238"/>
<path d="M406.527 98.696C406.518 99.2138 406.726 99.7144 407.107 100.09C407.489 100.466 408.013 100.687 408.567 100.706C408.84 100.729 409.115 100.7 409.376 100.622C409.637 100.544 409.878 100.417 410.086 100.25C410.294 100.083 410.464 99.8791 410.586 99.6497C410.707 99.4203 410.779 99.1704 410.796 98.9148C410.802 98.397 410.591 97.8976 410.207 97.5238C409.824 97.15 409.299 96.9314 408.745 96.9151C408.473 96.8894 408.198 96.9156 407.937 96.9922C407.676 97.0689 407.434 97.1943 407.227 97.3609C407.019 97.5274 406.85 97.7317 406.73 97.9612C406.61 98.1908 406.54 98.4408 406.527 98.696V98.696Z" fill="#263238"/>
<path d="M405.646 96.9151C405.914 97.1755 407.519 96.0715 409.804 96.0715C412.089 96.0715 413.761 97.113 414.017 96.8838C414.273 96.6547 413.872 96.3006 413.136 95.8424C412.151 95.213 410.986 94.8755 409.793 94.8738C408.587 94.8775 407.415 95.2426 406.449 95.9153C405.758 96.2902 405.524 96.7589 405.646 96.9151Z" fill="#263238"/>
<path d="M397.365 112.704C396.158 112.361 394.912 112.151 393.653 112.079C393.063 112.027 392.539 111.912 392.416 111.548C392.37 110.985 392.506 110.423 392.806 109.934L394.534 105.768C396.93 99.8624 398.658 94.9986 398.401 94.9153C398.145 94.832 396.005 99.5395 393.609 105.455C393.029 106.913 392.494 108.298 391.948 109.621C391.602 110.265 391.496 110.998 391.647 111.704C391.733 111.895 391.863 112.065 392.029 112.202C392.195 112.339 392.392 112.44 392.606 112.496C392.929 112.581 393.262 112.626 393.598 112.631C394.845 112.807 396.111 112.831 397.365 112.704V112.704Z" fill="#263238"/>
<path d="M398.323 117.849C398.759 117.339 399.326 116.94 399.971 116.691C400.616 116.441 401.319 116.349 402.013 116.422C402.517 116.464 403.007 116.602 403.453 116.825C403.9 117.049 404.293 117.355 404.61 117.724C404.915 118.079 405.096 118.514 405.128 118.968C405.16 119.423 405.041 119.876 404.788 120.265C404.423 120.65 403.944 120.922 403.411 121.049C402.878 121.175 402.317 121.149 401.801 120.974C400.723 120.617 399.73 120.065 398.881 119.349C398.621 119.177 398.398 118.962 398.223 118.714C398.139 118.597 398.094 118.459 398.094 118.318C398.094 118.177 398.139 118.039 398.223 117.922" fill="#EB756E" fill-opacity="0.51"/>
<path d="M404.086 114.183C403.707 114.183 403.707 116.485 401.589 118.12C399.471 119.755 396.819 119.516 396.808 119.838C396.808 119.984 397.387 120.286 398.502 120.317C399.958 120.336 401.374 119.875 402.503 119.016C403.581 118.192 404.273 117.007 404.431 115.714C404.532 114.745 404.253 114.173 404.086 114.183Z" fill="#263238"/>
<path d="M405.056 88.5101C405.29 89.0933 407.563 88.8225 410.25 89.1246C412.936 89.4266 415.098 90.1036 415.444 89.5828C415.611 89.3329 415.232 88.7913 414.329 88.2289C413.163 87.5402 411.844 87.1091 410.473 86.9683C409.101 86.8275 407.714 86.9808 406.415 87.4165C405.457 87.781 404.966 88.2393 405.056 88.5101Z" fill="#263238"/>
<path d="M384.034 90.3015C384.436 90.791 386.007 90.3015 387.902 90.3015C389.797 90.3015 391.402 90.6244 391.77 90.1245C391.926 89.8745 391.68 89.385 390.978 88.9267C390.042 88.3674 388.945 88.091 387.835 88.1352C386.722 88.1527 385.642 88.495 384.748 89.1142C384.079 89.5621 383.856 90.062 384.034 90.3015Z" fill="#263238"/>
<path d="M437.138 72.9943C449.885 48.7494 483.66 16.6603 496.418 39.1721C510.364 63.9091 499.852 75.0838 504.355 85.915C505.431 88.4743 514.521 86.3004 514.76 89.6465C515.386 98.4886 510.055 108.097 505.267 115.762C505.918 115.791 506.59 115.699 507.271 115.49C507.863 115.299 508.434 115.341 508.933 115.611C509.432 115.881 509.843 116.37 510.129 117.036C510.415 117.701 510.567 118.521 510.572 119.422C510.576 120.323 507.741 132.145 507.462 133.065C504.257 143.228 502.113 141.606 496.254 148.771C497.325 149.618 498.556 150.063 499.876 150.083C500.296 150.09 500.677 150.279 500.979 150.629C501.282 150.979 501.497 151.479 501.603 152.08C501.708 152.681 501.701 153.363 501.583 154.057C501.464 154.752 501.237 155.436 500.925 156.043C498.46 160.648 495.452 164.492 492.178 167.22C488.904 169.949 485.47 171.474 482.192 171.655C474.11 172.09 467.648 165.154 463.838 155.565C460.028 145.977 458.507 133.927 457.535 121.707C456.94 114.679 456.475 107.323 454.196 101.832C451.918 96.3415 447.331 93.1049 442.544 96.2252" fill="black" fill-opacity="0.9"/>
<path d="M446.541 79.7096C446.541 79.7096 446.541 79.543 446.541 79.3034C446.506 78.9448 446.412 78.5934 446.262 78.2619C445.784 77.164 445.183 76.1166 444.468 75.1375C443.779 74.1209 442.992 73.1656 442.116 72.2838C441.447 71.6172 440.946 71.2423 441.001 71.2423C441.536 71.3919 442.019 71.6682 442.406 72.0442C443.385 72.8804 444.243 73.8328 444.958 74.8771C445.704 75.9066 446.276 77.0378 446.652 78.2307C446.778 78.604 446.82 78.9976 446.775 79.3868C446.697 79.5951 446.563 79.7304 446.541 79.7096Z" fill="#FF725E"/>
<path d="M446.044 78.366C444.777 75.3803 442.742 72.7323 440.12 70.656C437.497 68.5797 434.368 67.1392 431.008 66.4618C426.898 65.7427 422.65 66.2796 418.892 67.9928C417.509 67.1581 416.246 66.1605 415.136 65.0245C411.208 61.3235 406.337 58.6175 400.98 57.1613C395.587 55.7263 389.822 56.1438 384.73 58.3382C382.215 59.4514 380.005 61.085 378.267 63.1151C376.529 65.1452 375.309 67.5185 374.698 70.0549C374.143 72.6041 373.746 75.9214 374.698 78.366C375.65 80.8107 377.914 82.2876 380.093 83.9068C384.551 87.0313 391.239 87.1042 395.53 83.8026C395.229 86.0835 397.369 88.1977 399.788 88.6248C401.01 88.7666 402.251 88.6735 403.434 88.3512C404.616 88.0288 405.716 87.4839 406.665 86.7501C408.551 85.2826 418.005 88.7155 419.651 87.0139C420.309 86.4203 413.308 80.824 413.999 80.272C415.298 82.8983 417.233 85.2064 419.651 87.0139C422.069 88.8214 424.904 90.0789 427.931 90.6869C426.014 92.6345 433.493 97.6961 426.973 98.2273C427.764 100.769 433.549 104.299 433.493 106.945C433.493 109.173 427.931 110.215 427.474 112.402C426.853 115.465 427.327 118.634 428.823 121.421C429.392 122.463 433.493 112.402 430.729 125.014C431.844 126.868 431.844 126.868 433.493 127.337C436.904 128.326 442.789 116.755 444.305 112.162C445.575 108.33 446.066 101.456 447.548 97.6961C450.156 90.9473 448.54 84.3234 446.044 78.366Z" fill="black" fill-opacity="0.9"/>
<path d="M447.733 91.7075C447.673 91.8316 447.594 91.9473 447.499 92.0512C447.24 92.356 446.922 92.6137 446.563 92.8115C445.891 93.1786 445.133 93.3849 444.355 93.4122C443.577 93.4394 442.804 93.2867 442.105 92.9677C441.63 92.7486 441.205 92.4443 440.856 92.072C440.501 91.668 440.208 91.2192 439.987 90.7389C439.589 89.7081 439.081 88.7172 438.471 87.7811C438.076 87.3287 437.589 86.9541 437.038 86.6787C436.487 86.4034 435.883 86.233 435.261 86.1772C433.87 86.0356 432.47 85.9799 431.07 86.0105C429.633 85.9832 428.204 85.7979 426.812 85.4586C425.524 85.1209 424.277 84.6602 423.09 84.0838C421.085 83.103 419.29 81.7862 417.795 80.199C416.779 79.1409 415.931 77.9519 415.276 76.6683C415.093 76.3309 414.933 75.983 414.797 75.6269C414.734 75.5017 414.693 75.3682 414.674 75.2311C415.595 76.9334 416.745 78.5189 418.096 79.9491C419.598 81.4606 421.371 82.7154 423.335 83.6568C424.496 84.1966 425.709 84.6325 426.957 84.9586C428.306 85.2781 429.69 85.4528 431.081 85.4794C432.507 85.4473 433.934 85.5099 435.35 85.6668C436.041 85.7365 436.709 85.9334 437.318 86.2463C437.926 86.5592 438.462 86.9817 438.895 87.4895C439.524 88.4756 440.036 89.5234 440.422 90.614C440.621 91.0613 440.883 91.4817 441.202 91.8637C441.515 92.2035 441.893 92.486 442.316 92.6969C442.965 93.006 443.683 93.1672 444.412 93.1672C445.14 93.1672 445.858 93.006 446.507 92.6969C446.958 92.4158 447.37 92.0834 447.733 91.7075V91.7075Z" fill="#455A64"/>
<path d="M445.159 97.9566C445.159 97.9566 444.958 98.2378 444.456 98.5919C443.747 99.0907 442.946 99.4648 442.093 99.6959C440.816 100.057 439.46 100.1 438.159 99.8209C436.553 99.4814 435.095 98.6931 433.979 97.5608C432.979 96.3929 432.133 95.1166 431.46 93.7594C430.912 92.6911 430.156 91.7271 429.231 90.9161C428.619 90.3755 427.878 89.9792 427.069 89.7601C426.753 89.7186 426.441 89.6594 426.133 89.583C426.455 89.5093 426.791 89.5093 427.113 89.583C427.995 89.7205 428.82 90.0807 429.499 90.6245C430.495 91.4368 431.316 92.4195 431.917 93.5198C432.588 94.83 433.419 96.0636 434.392 97.1963C435.428 98.2507 436.773 98.9969 438.259 99.3418C439.474 99.6249 440.745 99.6249 441.96 99.3418C443.092 99.0265 444.169 98.5599 445.159 97.9566V97.9566Z" fill="#455A64"/>
<path d="M368.379 241.541L370.259 246.031L366.554 286.985H461.066L456.849 274.738L468.598 275.313C486.721 276.185 501.529 260.704 498.003 243.679C497.891 243.169 497.78 242.615 497.635 242.147C491.772 220.239 483.795 190.786 481.025 182.093C476.43 167.718 466.206 160.887 466.206 160.887H466.05C451.909 149.853 432.673 148.874 432.673 148.874L425.586 153.428C422.092 155.667 425.586 186.013 437.549 163.029C433.357 163.359 438.236 150.686 434.406 149.023C435.413 150.134 433.007 148.413 434.406 149.023C433.398 147.912 399.008 150.285 398.574 148.874C390.252 149.709 379.327 151.739 371.638 154.897C367.269 156.831 363.359 159.599 360.147 163.029C356.935 166.46 354.489 170.481 352.959 174.847L328.271 244.009L286.239 238.572L277.249 262.044L319.838 271.748C327.474 273.925 335.66 273.528 343.025 270.622C350.391 267.717 356.49 262.48 360.302 255.788L368.379 241.583V241.541ZM446.992 247.116C446.992 247.116 451.03 232.305 453.489 224.335L459.452 246.68L446.992 247.116Z" fill="#2E353A"/>
<path d="M479.321 275.416H478.831H477.404H471.831L450.977 275.489L378.406 275.583H378.16V275.323C378.528 267.053 378.929 258.378 379.331 249.421V249.171H379.598L406.56 248.379L459.604 246.89L459.347 247.213C457.363 240.454 455.747 233.871 454.187 227.591C452.626 221.311 451.233 215.291 449.862 209.625C449.208 206.792 448.566 204.043 447.934 201.377C447.245 198.818 446.738 196.219 446.418 193.597C446.18 191.172 446.18 188.731 446.418 186.306C446.615 184.074 447.048 181.866 447.711 179.714C448.799 176.014 450.987 172.677 454.02 170.09C456.314 168.202 459.143 166.972 462.167 166.549C464.044 166.266 465.964 166.366 467.796 166.841C468.264 166.967 468.722 167.124 469.167 167.309C469.468 167.424 469.613 167.497 469.613 167.497C469.613 167.497 469 167.237 467.774 166.924C465.953 166.486 464.054 166.412 462.201 166.705C459.223 167.158 456.446 168.398 454.198 170.278C451.226 172.846 449.09 176.145 448.034 179.797C447.392 181.934 446.974 184.125 446.786 186.338C446.544 188.762 446.544 191.203 446.786 193.628C447.113 196.233 447.627 198.815 448.324 201.356C448.959 204.012 449.606 206.761 450.286 209.594C451.657 215.26 453.117 221.259 454.644 227.539C456.171 233.819 457.843 240.401 459.838 247.14L459.927 247.452H459.581L406.594 248.973L379.62 249.764L379.899 249.504C379.487 258.461 379.085 267.137 378.706 275.406L378.428 275.135L450.999 275.239L471.853 275.312H477.426H478.853C479.011 275.338 479.167 275.373 479.321 275.416V275.416Z" fill="#263238"/>
<path d="M373.613 183.203C373.662 183.415 373.681 183.632 373.669 183.848C373.669 184.275 373.669 184.89 373.669 185.713C373.513 187.997 373.083 190.257 372.387 192.451C371.334 195.686 370.098 198.867 368.686 201.981C366.934 205.761 365.568 209.687 364.607 213.708C363.822 217.756 363.799 221.901 364.54 225.956C365.139 229.273 365.995 232.545 367.104 235.746C368.04 238.485 368.876 240.683 369.456 242.203L370.102 243.953C370.194 244.153 370.257 244.363 370.291 244.578C370.166 244.396 370.065 244.2 369.991 243.995C369.801 243.547 369.545 242.953 369.244 242.276C368.597 240.776 367.706 238.6 366.714 235.86C365.539 232.655 364.637 229.367 364.016 226.029C363.225 221.92 363.225 217.712 364.016 213.604C364.975 209.552 366.352 205.596 368.129 201.793C369.69 198.273 371.061 195.096 371.93 192.347C372.657 190.184 373.146 187.958 373.39 185.702C373.568 184.098 373.557 183.203 373.613 183.203Z" fill="#263238"/>
<path d="M459.604 247.171C460.239 246.958 460.916 246.876 461.588 246.932C463.212 246.97 464.811 247.325 466.28 247.973C467.789 248.58 469.083 249.573 470.014 250.837C470.43 251.339 470.682 251.943 470.739 252.576C470.638 252.576 470.404 251.931 469.68 251.056C468.707 249.929 467.456 249.039 466.035 248.463C464.624 247.865 463.118 247.489 461.577 247.348C460.916 247.331 460.256 247.272 459.604 247.171V247.171Z" fill="#263238"/>
<path d="M451.267 155.343C451.875 155.506 452.467 155.715 453.039 155.968C453.607 156.186 454.298 156.447 455.09 156.78L457.731 157.988C458.712 158.436 459.749 159.03 460.874 159.582C462 160.134 463.104 160.873 464.352 161.602C466.951 163.25 469.393 165.104 471.653 167.143C475.775 170.868 478.926 175.429 480.859 180.474C481.199 181.339 481.482 182.222 481.706 183.119C481.907 183.911 482.096 184.577 482.174 185.202C482.299 185.783 482.381 186.371 482.42 186.962C482.21 186.404 482.053 185.829 481.951 185.244C481.851 184.682 481.628 184.025 481.394 183.244C481.16 182.463 480.848 181.609 480.48 180.651C478.454 175.721 475.305 171.261 471.251 167.58C469.017 165.562 466.609 163.719 464.051 162.071C462.858 161.342 461.721 160.623 460.629 159.988C459.537 159.353 458.511 158.811 457.542 158.342L454.945 157.072L452.95 156.176C452.368 155.937 451.805 155.658 451.267 155.343V155.343Z" fill="#263238"/>
<g opacity="0.3">
<path opacity="0.3" d="M447.577 198.981C447.577 198.981 438.17 237.798 438.315 241.599C438.341 243.597 438.667 245.581 439.285 247.494L447.087 247.557L447.154 246.838L453.73 224.873L447.577 198.981Z" fill="black"/>
</g>
<path d="M365.688 248.973L359.558 246.65C359.558 246.65 352.436 235.36 350.975 235.902C349.515 236.444 349.304 239.891 352.201 245.088L344.143 243.39C344.143 243.39 327.424 251.722 328.215 252.67C329.007 253.618 330.578 255.92 334.223 253.941C337.868 251.962 342.638 249.598 342.638 249.598L352.057 251.587L340.186 253.67L329.52 263.804C329.52 263.804 333.365 266.199 336.385 263.293L365.922 267.636H378.428L379.097 252.191L365.688 248.973Z" fill="#C6A18E"/>
<path d="M336.385 263.221C336.519 263.283 337.01 262.45 338.002 261.325C338.583 260.682 339.268 260.127 340.03 259.68C340.997 259.194 342.051 258.88 343.14 258.753C347.966 257.961 351.856 257.128 351.811 256.899C351.767 256.67 347.821 257.117 342.973 257.94C341.767 258.08 340.608 258.46 339.573 259.055C338.756 259.574 338.05 260.231 337.489 260.992C336.923 261.634 336.543 262.402 336.385 263.221V263.221Z" fill="#EB756E" fill-opacity="0.51"/>
<path d="M341.022 264.075C341.134 264.075 341.189 263.502 341.992 263.293C342.794 263.085 344.143 262.898 345.514 262.689C348.3 262.273 350.608 262.179 350.619 261.929C350.63 261.679 348.267 261.419 345.38 261.846C344.133 262 342.913 262.301 341.747 262.741C341.544 262.822 341.364 262.945 341.219 263.1C341.074 263.255 340.969 263.439 340.911 263.637C340.855 263.939 340.966 264.085 341.022 264.075Z" fill="#EB756E" fill-opacity="0.51"/>
<path d="M364.875 248.64C363.871 248.447 362.884 248.186 361.921 247.858C360.115 247.338 357.607 246.682 354.81 246.025L347.643 244.338C346.638 244.149 345.656 243.866 344.711 243.495C345.735 243.57 346.75 243.73 347.743 243.974C349.593 244.328 352.202 244.838 354.955 245.505C357.356 246.054 359.726 246.717 362.055 247.494C363.039 247.772 363.985 248.157 364.875 248.64V248.64Z" fill="#EB756E" fill-opacity="0.51"/>
<g filter="url(#filter0_d)">
<path d="M207.753 248.495L212.567 215.124L213.908 248.495H207.753Z" fill="#263238"/>
<path d="M163.89 212.941C164.05 212.941 162.824 221.24 161.15 231.407C159.477 241.573 157.998 249.802 157.826 249.779C157.654 249.756 158.892 241.48 160.566 231.313C162.239 221.147 163.729 212.918 163.89 212.941Z" fill="#263238"/>
<path d="M194.801 176.29C194.801 177.576 194.427 178.833 193.726 179.902C193.024 180.971 192.027 181.804 190.86 182.296C189.694 182.789 188.41 182.917 187.172 182.666C185.934 182.416 184.796 181.796 183.903 180.887C183.01 179.978 182.402 178.819 182.156 177.558C181.91 176.297 182.036 174.99 182.519 173.802C183.002 172.614 183.821 171.598 184.871 170.884C185.92 170.17 187.155 169.788 188.417 169.788C189.256 169.787 190.087 169.954 190.862 170.28C191.638 170.606 192.342 171.085 192.935 171.689C193.528 172.293 193.998 173.011 194.319 173.8C194.639 174.589 194.803 175.436 194.801 176.29V176.29Z" fill="#FAFAFA"/>
<path d="M188.417 182.815C187.15 182.815 185.911 182.432 184.858 181.715C183.804 180.998 182.983 179.979 182.498 178.787C182.013 177.595 181.886 176.283 182.134 175.017C182.381 173.751 182.991 172.589 183.887 171.676C184.783 170.764 185.925 170.142 187.167 169.89C188.41 169.639 189.699 169.768 190.869 170.262C192.04 170.756 193.041 171.592 193.745 172.665C194.449 173.738 194.824 174.999 194.824 176.29C194.821 178.019 194.145 179.677 192.945 180.9C191.744 182.123 190.116 182.812 188.417 182.815V182.815ZM188.417 169.823C187.162 169.823 185.934 170.203 184.89 170.913C183.845 171.624 183.032 172.634 182.551 173.815C182.07 174.997 181.945 176.297 182.19 177.551C182.435 178.806 183.039 179.958 183.927 180.862C184.816 181.767 185.947 182.383 187.179 182.632C188.41 182.882 189.687 182.754 190.847 182.264C192.008 181.775 192.999 180.946 193.697 179.882C194.395 178.819 194.767 177.569 194.767 176.29C194.764 174.576 194.094 172.933 192.904 171.721C191.714 170.509 190.101 169.826 188.417 169.823V169.823Z" fill="#263238"/>
</g>
<path d="M249.644 227.981L241.18 229.999L232.715 227.981L230.761 209.245H251.598L249.644 227.981Z" fill="#2062AF"/>
<path d="M241.18 210.763V228.389L241.199 228.394L248.049 226.761L249.63 210.763H241.18V210.763Z" fill="#3C9CD7"/>
<path d="M236.376 206.493V205.377H238.213V204.157H234.997V207.606H238.213V206.493H236.376ZM241.519 205.377H242.804V204.157H239.588V205.377C240.018 205.758 240.242 205.941 240.865 206.492C240.501 206.492 239.588 206.493 239.588 206.493V207.606H242.804V206.493L241.519 205.377ZM246.078 205.377H247.362V204.157H244.146V205.377C244.576 205.758 244.801 205.941 245.423 206.492C245.059 206.492 244.146 206.493 244.146 206.493V207.606H247.362V206.493L246.078 205.377V205.377Z" fill="black"/>
<path d="M241.172 215.447L235.114 217.681L235.315 219.893L241.172 217.676L247.403 215.317L247.661 213.055L241.172 215.447Z" fill="white"/>
<path d="M235.114 217.682L235.314 219.893L241.172 217.676V215.448L235.114 217.682V217.682Z" fill="url(#paint0_linear)"/>
<path d="M247.661 213.055L241.172 215.447V217.676L247.403 215.317L247.661 213.055Z" fill="url(#paint1_linear)"/>
<path d="M235.123 217.682L235.324 219.893L244.312 219.919L244.111 222.868L241.153 223.605L238.31 222.969L238.138 221.139H235.496L235.841 224.672L241.182 226.071L246.494 224.698L247.183 217.682H235.123V217.682Z" fill="url(#paint2_linear)"/>
<path opacity="0.05" d="M241.172 217.682H235.114L235.315 219.893L241.172 219.91V217.682ZM241.172 223.598L241.143 223.605L238.301 222.969L238.129 221.139H235.487L235.831 224.672L241.172 226.071V223.598Z" fill="black"/>
<path d="M234.568 213.055H247.661L247.403 215.317H234.884L234.568 213.055V213.055Z" fill="url(#paint3_linear)"/>
<path opacity="0.05" d="M241.172 213.055H234.568L234.884 215.317H241.172V213.055V213.055Z" fill="black"/>
<path d="M128.334 231.511C128.183 231.511 128.042 231.473 127.911 231.406L126.569 230.655C126.367 230.55 126.468 230.512 126.529 230.493C126.801 230.407 126.852 230.388 127.134 230.236C127.164 230.217 127.205 230.227 127.235 230.246L128.264 230.826C128.304 230.845 128.355 230.845 128.385 230.826L132.41 228.629C132.45 228.61 132.47 228.571 132.47 228.524V224.139C132.47 224.091 132.45 224.054 132.41 224.034L128.385 221.847C128.345 221.828 128.294 221.828 128.264 221.847L124.239 224.034C124.199 224.053 124.178 224.101 124.178 224.139V228.524C124.178 228.562 124.199 228.61 124.239 228.629L125.339 229.228C125.934 229.513 126.307 229.18 126.307 228.847V224.519C126.307 224.462 126.357 224.405 126.428 224.405H126.942C127.003 224.405 127.063 224.453 127.063 224.519V228.847C127.063 229.599 126.63 230.036 125.873 230.036C125.641 230.036 125.46 230.036 124.945 229.798L123.886 229.228C123.624 229.085 123.462 228.819 123.462 228.533V224.149C123.462 223.863 123.624 223.597 123.886 223.454L127.911 221.257C128.163 221.124 128.506 221.124 128.758 221.257L132.783 223.454C133.045 223.597 133.207 223.863 133.207 224.149V228.533C133.207 228.819 133.045 229.085 132.783 229.228L128.758 231.425C128.627 231.482 128.476 231.511 128.334 231.511H128.334ZM129.575 228.495C127.81 228.495 127.447 227.734 127.447 227.088C127.447 227.031 127.497 226.974 127.568 226.974H128.092C128.153 226.974 128.203 227.012 128.203 227.069C128.284 227.573 128.516 227.82 129.585 227.82C130.433 227.82 130.796 227.639 130.796 227.211C130.796 226.964 130.695 226.783 129.373 226.66C128.274 226.555 127.588 226.327 127.588 225.499C127.588 224.729 128.274 224.272 129.424 224.272C130.715 224.272 131.351 224.691 131.431 225.604C131.431 225.632 131.421 225.661 131.401 225.689C131.381 225.708 131.351 225.727 131.32 225.727H130.796C130.745 225.727 130.695 225.689 130.685 225.642C130.564 225.119 130.251 224.948 129.424 224.948C128.496 224.948 128.385 225.252 128.385 225.48C128.385 225.756 128.516 225.842 129.767 225.994C131.008 226.146 131.593 226.365 131.593 227.183C131.583 228.02 130.856 228.495 129.575 228.495Z" fill="#539E43"/>
<path d="M115.846 214.361C115.846 214.19 115.745 214.028 115.584 213.943L111.307 211.622C111.236 211.584 111.156 211.565 111.075 211.555H111.034C110.954 211.555 110.873 211.584 110.802 211.622L106.525 213.943C106.364 214.028 106.263 214.19 106.263 214.361L106.273 220.601C106.273 220.686 106.324 220.772 106.404 220.81C106.485 220.858 106.586 220.858 106.657 220.81L109.199 219.44C109.36 219.355 109.461 219.193 109.461 219.022V216.102C109.461 215.931 109.562 215.769 109.723 215.683L110.802 215.094C110.883 215.046 110.974 215.027 111.065 215.027C111.156 215.027 111.246 215.046 111.317 215.094L112.396 215.683C112.558 215.769 112.659 215.93 112.659 216.102V219.022C112.659 219.193 112.759 219.355 112.921 219.44L115.463 220.81C115.544 220.858 115.644 220.858 115.725 220.81C115.806 220.772 115.856 220.686 115.856 220.601L115.846 214.361ZM136.404 205.772C136.324 205.734 136.223 205.734 136.152 205.772C136.072 205.82 136.021 205.896 136.021 205.981V212.164C136.021 212.221 135.991 212.278 135.93 212.316C135.87 212.345 135.809 212.345 135.749 212.316L134.68 211.736C134.601 211.694 134.512 211.672 134.422 211.672C134.332 211.672 134.243 211.694 134.165 211.736L129.888 214.066C129.727 214.152 129.626 214.314 129.626 214.485V219.136C129.626 219.307 129.727 219.469 129.888 219.555L134.165 221.885C134.243 221.927 134.332 221.949 134.422 221.949C134.512 221.949 134.601 221.927 134.68 221.885L138.957 219.555C139.118 219.469 139.219 219.307 139.219 219.136V207.541C139.219 207.36 139.118 207.199 138.957 207.113L136.404 205.772H136.404ZM136.011 217.605C136.011 217.652 135.991 217.69 135.95 217.709L134.488 218.508C134.467 218.518 134.445 218.522 134.422 218.522C134.4 218.522 134.377 218.518 134.357 218.508L132.894 217.709C132.854 217.69 132.833 217.643 132.833 217.605V216.007C132.833 215.959 132.854 215.921 132.894 215.902L134.357 215.103C134.377 215.094 134.4 215.089 134.422 215.089C134.445 215.089 134.467 215.094 134.488 215.103L135.95 215.902C135.991 215.921 136.011 215.969 136.011 216.007V217.605ZM150.638 215.969C150.799 215.883 150.89 215.721 150.89 215.55V214.418C150.89 214.247 150.789 214.085 150.638 214L146.391 211.679C146.313 211.637 146.224 211.615 146.134 211.615C146.044 211.615 145.955 211.637 145.877 211.679L141.599 214.009C141.438 214.095 141.337 214.256 141.337 214.428V219.079C141.337 219.25 141.438 219.412 141.599 219.497L145.846 221.78C146.008 221.866 146.199 221.866 146.351 221.78L148.923 220.43C149.004 220.392 149.054 220.306 149.054 220.22C149.054 220.135 149.004 220.049 148.923 220.011L144.626 217.681C144.545 217.633 144.495 217.557 144.495 217.472V216.016C144.495 215.931 144.545 215.845 144.626 215.807L145.967 215.084C146.007 215.061 146.052 215.048 146.098 215.048C146.145 215.048 146.19 215.061 146.23 215.084L147.571 215.807C147.652 215.855 147.702 215.931 147.702 216.016V217.158C147.702 217.243 147.753 217.329 147.833 217.367C147.914 217.414 148.015 217.414 148.096 217.367L150.638 215.969V215.969Z" fill="#333333"/>
<path d="M146.068 215.75C146.083 215.741 146.101 215.736 146.119 215.736C146.136 215.736 146.154 215.741 146.169 215.75L146.986 216.197C147.016 216.216 147.037 216.244 147.037 216.282V217.177C147.037 217.215 147.016 217.243 146.986 217.262L146.169 217.709C146.154 217.719 146.136 217.723 146.119 217.723C146.101 217.723 146.083 217.719 146.068 217.709L145.251 217.262C145.221 217.243 145.201 217.215 145.201 217.177V216.282C145.201 216.244 145.221 216.216 145.251 216.197L146.068 215.75V215.75Z" fill="#539E43"/>
<mask id="mask0" mask-type="alpha" maskUnits="userSpaceOnUse" x="117" y="211" width="11" height="11">
<path d="M122.998 211.698C122.92 211.656 122.831 211.634 122.741 211.634C122.651 211.634 122.562 211.656 122.484 211.698L118.237 214.009C118.076 214.095 117.985 214.256 117.985 214.428V219.06C117.985 219.231 118.086 219.393 118.237 219.478L122.484 221.79C122.562 221.832 122.651 221.854 122.741 221.854C122.831 221.854 122.92 221.832 122.998 221.79L127.245 219.478C127.406 219.393 127.497 219.231 127.497 219.06V214.428C127.497 214.256 127.396 214.095 127.245 214.009L122.998 211.698Z" fill="white"/>
</mask>
<g mask="url(#mask0)">
<path d="M122.998 211.698C122.92 211.656 122.831 211.634 122.741 211.634C122.651 211.634 122.562 211.656 122.484 211.698L118.237 214.009C118.076 214.095 117.985 214.256 117.985 214.428V219.06C117.985 219.231 118.086 219.393 118.237 219.478L122.484 221.79C122.562 221.832 122.651 221.854 122.741 221.854C122.831 221.854 122.92 221.832 122.998 221.79L127.245 219.478C127.406 219.393 127.497 219.231 127.497 219.06V214.428C127.497 214.256 127.396 214.095 127.245 214.009L122.998 211.698Z" fill="url(#paint4_linear)"/>
<path d="M127.255 214.01L122.988 211.699C122.946 211.679 122.902 211.663 122.857 211.651L118.076 219.375C118.115 219.42 118.163 219.459 118.217 219.489L122.484 221.8C122.605 221.867 122.746 221.886 122.877 221.848L127.366 214.105C127.336 214.067 127.296 214.039 127.255 214.01V214.01Z" fill="url(#paint5_linear)"/>
<path fill-rule="evenodd" clip-rule="evenodd" d="M127.266 219.478C127.387 219.412 127.478 219.298 127.518 219.174L122.837 211.641C122.716 211.622 122.585 211.631 122.474 211.698L118.238 214L122.807 221.856C122.874 221.846 122.938 221.827 122.999 221.799L127.266 219.478L127.266 219.478Z" fill="url(#paint6_linear)"/>
<path fill-rule="evenodd" clip-rule="evenodd" d="M127.265 219.478L123.008 221.79C122.948 221.819 122.883 221.838 122.817 221.847L122.897 221.99L127.618 219.412V219.355L127.497 219.165C127.477 219.298 127.386 219.412 127.265 219.478V219.478Z" fill="url(#paint7_linear)"/>
<path fill-rule="evenodd" clip-rule="evenodd" d="M127.265 219.478L123.008 221.79C122.948 221.819 122.883 221.838 122.817 221.847L122.897 221.99L127.618 219.412V219.355L127.497 219.165C127.477 219.298 127.386 219.412 127.265 219.478V219.478Z" fill="url(#paint8_linear)"/>
</g>
<g clip-path="url(#clip0)">
<path d="M187.984 127.984H215.256V152.463H187.984V127.984Z" fill="#F7DF1E"/>
<path d="M196.662 143.775L198.749 142.641C199.152 143.282 199.518 143.824 200.396 143.824C201.239 143.824 201.77 143.529 201.77 142.379V134.557H204.332V142.411C204.332 144.794 202.776 145.878 200.506 145.878C198.456 145.878 197.266 144.925 196.662 143.775L196.662 143.775ZM205.724 143.529L207.811 142.444C208.361 143.249 209.075 143.841 210.338 143.841C211.4 143.841 212.077 143.364 212.077 142.707C212.077 141.918 211.381 141.639 210.209 141.179L209.569 140.932C207.72 140.226 206.493 139.339 206.493 137.465C206.493 135.74 207.958 134.425 210.246 134.425C211.875 134.425 213.047 134.935 213.889 136.266L211.894 137.416C211.454 136.71 210.978 136.43 210.246 136.43C209.495 136.43 209.019 136.858 209.019 137.416C209.019 138.106 209.495 138.386 210.594 138.813L211.234 139.059C213.413 139.898 214.64 140.752 214.64 142.674C214.64 144.745 212.827 145.879 210.392 145.879C208.013 145.879 206.475 144.86 205.724 143.529" fill="black"/>
</g>
<path d="M158.126 143.303C156.479 143.312 155.053 143.702 153.857 144.282C153.415 143.421 152.974 142.669 152.9 142.107C152.817 141.455 152.716 141.056 152.817 140.278C152.919 139.498 153.379 138.393 153.379 138.303C153.369 138.221 153.277 137.822 152.33 137.813C151.382 137.804 150.563 137.995 150.471 138.239C150.379 138.484 150.195 139.045 150.076 139.625C149.91 140.477 148.18 143.493 147.196 145.079C146.874 144.463 146.598 143.919 146.543 143.484C146.46 142.832 146.359 142.433 146.46 141.654C146.561 140.875 147.021 139.77 147.021 139.68C147.012 139.598 146.92 139.199 145.972 139.19C145.025 139.181 144.206 139.372 144.114 139.616C144.022 139.861 143.921 140.44 143.718 141.002C143.525 141.564 141.225 146.6 140.627 147.914C140.323 148.584 140.057 149.119 139.863 149.481C139.67 149.844 139.854 149.508 139.836 149.545C139.67 149.853 139.578 150.025 139.578 150.025V150.034C139.449 150.26 139.311 150.478 139.247 150.478C139.201 150.478 139.109 149.871 139.265 149.037C139.606 147.289 140.434 144.562 140.424 144.463C140.424 144.417 140.581 143.937 139.891 143.693C139.219 143.448 138.98 143.856 138.925 143.856C138.869 143.856 138.823 144.001 138.823 144.001C138.823 144.001 139.569 140.93 137.397 140.93C136.036 140.93 134.159 142.388 133.23 143.72C132.641 144.037 131.39 144.707 130.065 145.423C129.559 145.695 129.034 145.985 128.537 146.247L128.436 146.138C125.805 143.376 120.938 141.419 121.14 137.705C121.214 136.355 121.692 132.795 130.488 128.483C137.692 124.95 143.461 125.919 144.463 128.075C145.889 131.155 141.381 136.88 133.892 137.705C131.04 138.022 129.54 136.935 129.163 136.527C128.768 136.101 128.712 136.083 128.565 136.165C128.326 136.292 128.473 136.672 128.565 136.898C128.786 137.469 129.706 138.484 131.27 138.991C132.641 139.435 135.99 139.68 140.038 138.14C144.574 136.409 148.116 131.608 147.076 127.595C146.018 123.51 139.136 122.169 132.632 124.443C128.758 125.801 124.563 127.921 121.545 130.702C117.957 134 117.387 136.88 117.626 138.076C118.463 142.343 124.434 145.124 126.826 147.18C126.707 147.244 126.596 147.307 126.495 147.361C125.299 147.941 120.745 150.287 119.604 152.769C118.316 155.578 119.806 157.598 120.8 157.87C123.873 158.712 127.019 157.199 128.722 154.708C130.414 152.217 130.212 148.983 129.43 147.506L129.402 147.452L130.341 146.908C130.948 146.555 131.546 146.229 132.07 145.948C131.776 146.736 131.564 147.669 131.454 149.028C131.325 150.623 131.988 152.688 132.862 153.503C133.248 153.856 133.708 153.866 133.993 153.866C135.005 153.866 135.465 153.041 135.971 152.054C136.597 150.849 137.149 149.454 137.149 149.454C137.149 149.454 136.459 153.231 138.345 153.231C139.035 153.231 139.725 152.353 140.038 151.9V151.909C140.038 151.909 140.056 151.882 140.093 151.818C140.132 151.762 140.169 151.705 140.204 151.646V151.628C140.48 151.157 141.096 150.079 142.016 148.294C143.203 145.994 144.344 143.113 144.344 143.113C144.344 143.113 144.454 143.819 144.795 144.979C144.997 145.668 145.439 146.419 145.779 147.153C145.503 147.534 145.337 147.751 145.337 147.751L145.347 147.76C145.126 148.05 144.877 148.358 144.62 148.666C143.681 149.771 142.559 151.03 142.412 151.393C142.237 151.818 142.274 152.136 142.614 152.389C142.863 152.57 143.304 152.607 143.773 152.57C144.62 152.516 145.209 152.308 145.503 152.181C145.963 152.018 146.488 151.773 146.994 151.411C147.914 150.741 148.475 149.789 148.42 148.521C148.392 147.824 148.162 147.135 147.877 146.483C147.96 146.365 148.042 146.247 148.125 146.121C149.579 144.028 150.701 141.727 150.701 141.727C150.701 141.727 150.812 142.434 151.152 143.593C151.327 144.182 151.677 144.825 151.989 145.459C150.628 146.555 149.772 147.824 149.478 148.657C148.935 150.197 149.358 150.895 150.158 151.058C150.517 151.13 151.033 150.967 151.419 150.804C151.897 150.65 152.477 150.387 153.011 149.998C153.931 149.327 154.814 148.394 154.768 147.135C154.74 146.555 154.584 145.985 154.372 145.441C155.532 144.97 157.031 144.698 158.936 144.925C163.03 145.396 163.839 147.914 163.683 148.965C163.527 150.016 162.671 150.596 162.386 150.777C162.101 150.949 162.009 151.012 162.036 151.139C162.073 151.33 162.202 151.32 162.45 151.284C162.791 151.23 164.603 150.424 164.677 148.485C164.787 145.994 162.386 143.276 158.126 143.303V143.303ZM126.55 153.784C125.198 155.243 123.293 155.795 122.484 155.324C121.61 154.826 121.95 152.679 123.615 151.13C124.627 150.188 125.943 149.318 126.808 148.784C127.001 148.666 127.295 148.494 127.645 148.285C127.7 148.249 127.737 148.231 127.737 148.231C127.801 148.195 127.875 148.15 127.949 148.104C128.565 150.315 127.976 152.253 126.55 153.784V153.784ZM136.441 147.162C135.971 148.294 134.978 151.202 134.38 151.039C133.864 150.903 133.552 148.702 134.278 146.528C134.647 145.432 135.429 144.127 135.889 143.62C136.634 142.805 137.443 142.533 137.646 142.868C137.885 143.303 136.735 146.456 136.441 147.162ZM144.601 151.003C144.399 151.103 144.215 151.175 144.132 151.121C144.068 151.085 144.215 150.949 144.215 150.949C144.215 150.949 145.236 149.871 145.641 149.373C145.871 149.083 146.147 148.748 146.441 148.367V148.476C146.442 149.78 145.172 150.65 144.601 151.003ZM150.894 149.59C150.747 149.481 150.766 149.146 151.262 148.095C151.456 147.678 151.897 146.981 152.661 146.32C152.753 146.591 152.808 146.854 152.799 147.099C152.79 148.729 151.612 149.336 150.894 149.59Z" fill="#CF649A"/>
<g clip-path="url(#clip1)">
<path d="M173.671 222.525L171.64 202.03H193.954L191.921 222.522L182.783 224.802L173.671 222.525Z" fill="#E44D26"/>
<path d="M182.797 223.059L190.18 221.217L191.918 203.706H182.797V223.059Z" fill="#F16529"/>
<path d="M182.797 211.307H179.101L178.845 208.733H182.797V206.219H175.792L175.859 206.894L176.546 213.821H182.797V211.307ZM182.797 217.835L182.785 217.838L179.674 217.082L179.475 215.078H176.671L177.062 219.024L182.784 220.454L182.797 220.451V217.835Z" fill="#EBEBEB"/>
<path d="M173.716 196.46H175.136V197.723H176.434V196.46H177.854V200.282H176.434V199.003H175.136V200.282H173.716L173.716 196.46ZM179.721 197.728H178.471V196.46H182.391V197.728H181.141V200.282H179.721V197.728H179.721ZM183.013 196.46H184.493L185.404 197.803L186.313 196.46H187.794V200.282H186.38V198.388L185.404 199.747H185.379L184.402 198.388V200.282H183.013V196.46H183.013ZM188.501 196.46H189.92V199.019H191.917V200.282H188.501V196.46Z" fill="black"/>
<path d="M182.787 211.307V213.821H186.227L185.903 217.081L182.787 217.837V220.453L188.514 219.024L188.556 218.6L189.212 211.982L189.28 211.307H188.528H182.787ZM182.787 206.219V208.733H189.535L189.591 208.168L189.718 206.894L189.785 206.219H182.787Z" fill="white"/>
</g>
<path fill-rule="evenodd" clip-rule="evenodd" d="M161.22 175.151C161.161 175.168 161.101 175.357 161.101 175.459C161.089 176.145 161.078 177.961 161.078 179.195C161.078 179.229 161.113 179.298 161.149 179.298C161.326 179.315 161.753 179.332 162.121 179.332C162.631 179.332 162.927 179.229 163.093 179.126C163.52 178.818 163.721 178.15 163.721 177.413C163.721 175.751 162.915 175.117 161.718 175.117C161.635 175.1 161.398 175.1 161.22 175.151V175.151ZM164.279 182.81C164.279 181.114 163.413 180.171 161.848 180.171C161.777 180.171 161.279 180.154 161.16 180.188C161.125 180.206 161.078 180.24 161.078 180.291C161.078 181.508 161.066 183.444 161.101 184.198C161.125 184.524 161.291 184.986 161.493 185.123C161.706 185.295 162.192 185.329 162.524 185.329C163.46 185.329 164.279 184.575 164.279 182.81V182.81ZM158.801 174.209C158.92 174.209 159.275 174.26 160.188 174.26C161.054 174.26 161.741 174.226 162.583 174.226C163.615 174.226 165.037 174.757 165.037 176.984C165.037 178.081 164.504 178.955 163.804 179.383C163.769 179.4 163.769 179.435 163.804 179.452C164.8 179.812 165.677 180.703 165.677 182.382C165.677 184.027 164.966 185.072 163.935 185.723C163.306 186.117 162.524 186.254 161.73 186.254C161.125 186.254 159.501 186.152 158.6 186.186C158.505 186.134 158.683 185.517 158.766 185.415C158.979 185.397 159.145 185.38 159.37 185.278C159.691 185.158 159.726 185.021 159.773 184.318C159.797 183.718 159.797 181.593 159.797 180.086C159.797 178.012 159.809 176.607 159.797 175.922C159.785 175.391 159.655 175.22 159.394 175.117C159.192 175.065 158.861 174.997 158.588 174.945C158.529 174.86 158.73 174.277 158.801 174.209ZM151.961 184.866C152.245 185.192 152.803 185.329 153.3 185.329C153.941 185.329 154.581 185.158 155.197 184.352C155.826 183.53 156.264 182.262 156.264 180.24C156.264 178.304 155.755 176.727 154.711 175.802C154.118 175.271 153.36 175.048 152.482 175.048C152.222 175.048 151.973 175.065 151.819 175.168C151.783 175.202 151.7 175.357 151.7 175.442C151.676 175.785 151.676 178.424 151.676 179.966C151.676 181.559 151.676 183.787 151.7 184.044C151.7 184.301 151.783 184.695 151.961 184.866H151.961ZM149.27 174.208C149.495 174.208 150.36 174.26 150.775 174.26C151.522 174.26 152.056 174.209 153.466 174.209C154.652 174.209 155.648 174.671 156.359 175.545C157.224 176.625 157.675 178.115 157.675 179.931C157.675 182.519 156.857 184.01 156.039 184.866C155.221 185.74 154.154 186.254 152.637 186.254C151.83 186.254 150.443 186.22 149.293 186.203H149.281C149.222 186.049 149.376 185.449 149.471 185.432C149.779 185.38 149.862 185.363 150.017 185.278C150.265 185.14 150.313 184.952 150.349 184.318C150.384 183.136 150.372 181.714 150.372 180.103C150.372 178.955 150.384 176.71 150.36 175.99C150.325 175.391 150.147 175.237 149.791 175.134C149.613 175.082 149.376 175.014 149.044 174.963C148.997 174.842 149.21 174.311 149.27 174.209V174.208Z" fill="#8E714E"/>
<path fill-rule="evenodd" clip-rule="evenodd" d="M134.925 185.534C134.628 185.483 134.415 185.415 134.154 185.243C134.119 185.209 134.059 185.038 134.059 184.969C134.036 184.369 134.036 182.656 134.036 181.508C134.036 180.583 133.929 179.777 133.656 179.212C133.336 178.561 132.874 178.184 132.281 178.184C131.759 178.184 131.06 178.698 130.479 179.417C130.467 179.435 130.372 179.555 130.384 179.366C130.384 179.178 130.408 178.801 130.42 178.543C130.432 178.304 130.337 178.184 130.337 178.184C129.957 178.458 128.89 178.818 128.499 178.869C128.215 178.955 128.143 179.349 128.44 179.486H128.452C128.772 179.623 128.985 179.777 129.151 179.932C129.27 180.069 129.258 180.257 129.258 180.411C129.27 181.696 129.27 183.667 129.234 184.746C129.222 185.175 129.139 185.329 128.926 185.397L128.95 185.38C128.784 185.432 128.653 185.483 128.452 185.517C128.38 185.62 128.38 186.169 128.452 186.289C128.582 186.289 129.27 186.237 129.839 186.237C130.621 186.237 131.024 186.289 131.226 186.289C131.309 186.151 131.333 185.637 131.285 185.517C131.06 185.5 130.894 185.466 130.74 185.397C130.526 185.329 130.467 185.175 130.455 184.815C130.432 183.907 130.432 181.988 130.432 180.685C130.432 180.326 130.503 180.154 130.574 180.051C130.846 179.709 131.285 179.469 131.676 179.469C132.056 179.469 132.305 179.64 132.494 179.863C132.755 180.171 132.838 180.617 132.874 180.942C132.933 181.679 132.909 183.136 132.909 184.404C132.909 185.089 132.874 185.26 132.696 185.346C132.613 185.397 132.399 185.466 132.151 185.5C132.068 185.62 132.091 186.151 132.151 186.271C132.494 186.271 132.897 186.22 133.49 186.22C134.225 186.22 134.699 186.271 134.889 186.271C134.948 186.169 134.972 185.672 134.925 185.534V185.534ZM138.209 178.989C137.58 178.989 137.189 179.692 137.189 180.788C137.189 181.902 137.533 183.187 138.505 183.187C138.671 183.187 138.979 183.084 139.121 182.844C139.347 182.536 139.501 181.919 139.501 181.268C139.501 179.846 139.015 178.989 138.209 178.989V178.989ZM138.126 186.563C137.889 186.563 137.722 186.665 137.616 186.751C137.118 187.214 136.893 187.659 136.893 188.191C136.893 188.687 137.023 189.081 137.308 189.424C137.651 189.852 138.126 190.058 138.73 190.058C139.939 190.058 140.473 189.116 140.473 188.191C140.473 187.539 140.248 187.111 139.785 186.871C139.453 186.665 138.849 186.563 138.126 186.563V186.563ZM138.209 191.018C137.485 191.018 136.964 190.795 136.513 190.298C136.075 189.818 135.885 189.099 135.885 188.602C135.885 188.465 135.909 188.088 136.122 187.745C136.252 187.539 136.537 187.145 137.213 186.477C137.236 186.46 137.248 186.443 137.248 186.408C137.248 186.374 137.225 186.34 137.201 186.323C136.644 186.014 136.478 185.517 136.43 185.243V185.209C136.419 185.106 136.395 185.003 136.501 184.901C136.584 184.815 136.703 184.712 136.833 184.592C137.035 184.421 137.248 184.232 137.379 184.078C137.402 184.044 137.402 184.01 137.402 183.975C137.402 183.941 137.379 183.907 137.355 183.89C136.525 183.496 136.11 182.604 136.11 181.268C136.11 180.394 136.383 179.606 136.869 179.109C137.201 178.732 138.031 178.269 138.576 178.269H138.612C139.169 178.287 139.477 178.458 139.916 178.681C140.153 178.801 140.378 178.852 140.686 178.852C141.149 178.852 141.35 178.646 141.516 178.407C141.528 178.441 141.552 178.527 141.564 178.749C141.576 178.972 141.528 179.298 141.41 179.537C141.315 179.726 141.101 179.863 140.888 179.863H140.829C140.615 179.829 140.52 179.794 140.52 179.794L140.473 179.829C140.461 179.863 140.473 179.897 140.485 179.949L140.497 179.983C140.52 180.137 140.568 180.6 140.568 180.72C140.568 182.125 140.177 182.742 139.762 183.204C139.359 183.633 138.896 183.907 138.375 183.975C138.363 183.975 138.315 183.975 138.209 183.992C138.149 183.992 138.066 184.01 138.054 184.01H138.043C137.948 184.044 137.711 184.215 137.711 184.506C137.711 184.763 137.817 185.072 138.327 185.123C138.434 185.14 138.54 185.14 138.659 185.158C139.335 185.226 140.177 185.312 140.568 185.5C141.113 185.791 141.457 186.494 141.457 187.334C141.457 188.602 140.829 189.784 139.785 190.521C139.276 190.846 138.766 191.018 138.209 191.018V191.018ZM144.966 179.075C144.717 179.075 144.492 179.16 144.326 179.332C143.864 179.743 143.627 180.566 143.627 181.765C143.627 184.01 144.409 185.586 145.523 185.586C145.855 185.586 146.116 185.449 146.341 185.175C146.685 184.763 146.863 183.941 146.863 182.793C146.863 180.566 146.092 179.075 144.966 179.075L144.966 179.075ZM145.18 186.408C143.164 186.408 142.441 184.267 142.441 182.262C142.441 180.857 142.832 179.777 143.615 179.006C144.172 178.509 144.836 178.235 145.429 178.235C146.97 178.235 148.049 179.829 148.049 182.125C148.049 183.684 147.622 184.918 146.804 185.672C146.412 186.049 145.737 186.408 145.179 186.408H145.18V186.408ZM124.053 179.075C123.804 179.075 123.579 179.16 123.413 179.332C122.951 179.743 122.714 180.566 122.714 181.765C122.714 184.01 123.496 185.586 124.611 185.586C124.943 185.586 125.203 185.449 125.429 185.175C125.772 184.763 125.95 183.941 125.95 182.793C125.95 180.566 125.191 179.075 124.053 179.075ZM124.267 186.408C122.251 186.408 121.528 184.267 121.528 182.262C121.528 180.857 121.919 179.777 122.702 179.006C123.259 178.509 123.923 178.235 124.516 178.235C126.057 178.235 127.136 179.829 127.136 182.125C127.136 183.684 126.709 184.918 125.891 185.672C125.511 186.049 124.836 186.408 124.267 186.408ZM110.716 186.237C110.692 186.186 110.669 186.032 110.681 185.843C110.681 185.706 110.704 185.62 110.716 185.586C110.965 185.534 111.095 185.483 111.238 185.432C111.475 185.346 111.57 185.158 111.581 184.729C111.617 183.701 111.617 181.748 111.605 180.394V180.36C111.605 180.206 111.605 180.017 111.475 179.88C111.285 179.709 111.06 179.555 110.764 179.434C110.657 179.383 110.586 179.298 110.598 179.195C110.598 179.092 110.669 178.972 110.823 178.938C111.214 178.886 112.233 178.527 112.637 178.269C112.66 178.304 112.696 178.407 112.696 178.544L112.684 178.732C112.672 178.921 112.66 179.143 112.66 179.366C112.66 179.435 112.708 179.486 112.755 179.486C112.779 179.486 112.803 179.469 112.826 179.452C113.585 178.595 114.273 178.287 114.628 178.287C115.209 178.287 115.66 178.681 116.004 179.503C116.027 179.555 116.051 179.572 116.087 179.572C116.11 179.572 116.146 179.555 116.158 179.52C116.857 178.749 117.557 178.287 118.019 178.287C119.121 178.287 119.774 179.469 119.774 181.474C119.774 182.039 119.774 182.776 119.762 183.444C119.762 184.044 119.75 184.592 119.75 184.986C119.75 185.072 119.833 185.346 119.963 185.397C120.129 185.517 120.355 185.569 120.651 185.637H120.663C120.686 185.757 120.639 186.203 120.592 186.289C120.52 186.289 120.414 186.289 120.295 186.271C119.995 186.249 119.695 186.237 119.394 186.237C118.659 186.237 118.28 186.254 117.912 186.289C117.889 186.151 117.877 185.74 117.912 185.637C118.126 185.586 118.232 185.534 118.363 185.483C118.6 185.38 118.659 185.226 118.671 184.781C118.671 184.455 118.718 181.679 118.647 181.011C118.576 180.326 118.221 179.52 117.438 179.52C117.142 179.52 116.679 179.692 116.229 180.188C116.205 180.223 116.181 180.308 116.181 180.36V180.377C116.229 180.737 116.229 181.148 116.229 181.782V182.896C116.229 183.667 116.217 184.387 116.229 184.935C116.229 185.312 116.383 185.397 116.513 185.466C116.585 185.483 116.632 185.5 116.691 185.517C116.798 185.552 116.905 185.586 117.071 185.637C117.094 185.706 117.094 185.929 117.059 186.117C117.047 186.22 117.023 186.271 117.011 186.289C116.608 186.271 116.193 186.254 115.589 186.254C115.411 186.254 115.103 186.271 114.842 186.271C114.628 186.271 114.427 186.289 114.308 186.289C114.296 186.254 114.273 186.134 114.273 185.946C114.273 185.792 114.296 185.672 114.32 185.637C114.379 185.62 114.427 185.603 114.486 185.603C114.628 185.569 114.747 185.534 114.865 185.5C115.067 185.415 115.138 185.26 115.15 184.883C115.186 184.027 115.221 181.577 115.138 180.96C114.996 179.966 114.605 179.469 113.976 179.469C113.609 179.469 113.146 179.726 112.767 180.137C112.708 180.206 112.66 180.377 112.66 180.531V181.542C112.66 182.776 112.66 184.318 112.672 184.986C112.684 185.192 112.731 185.432 113.004 185.517C113.064 185.534 113.158 185.569 113.277 185.586L113.49 185.637C113.514 185.74 113.502 186.151 113.455 186.289C113.336 186.289 113.194 186.271 113.028 186.271C112.779 186.254 112.459 186.237 112.103 186.237C111.688 186.237 111.392 186.254 111.155 186.271C110.989 186.237 110.858 186.237 110.716 186.237V186.237Z" fill="#442D22"/>
<path fill-rule="evenodd" clip-rule="evenodd" d="M104.48 190.35L103.994 190.109C103.994 190.109 104.053 186.528 103.164 186.271C102.572 185.278 103.259 144.12 105.393 186.134C105.393 186.134 104.658 186.665 104.528 187.574C104.385 188.465 104.48 190.35 104.48 190.35V190.35Z" fill="white"/>
<path fill-rule="evenodd" clip-rule="evenodd" d="M104.48 190.35L103.994 190.109C103.994 190.109 104.053 186.528 103.164 186.271C102.572 185.278 103.259 144.12 105.393 186.134C105.393 186.134 104.658 186.665 104.528 187.574C104.385 188.465 104.48 190.35 104.48 190.35V190.35Z" fill="#A6A385"/>
<path fill-rule="evenodd" clip-rule="evenodd" d="M104.741 186.888C104.741 186.888 108.997 182.844 108.001 174.431C107.041 168.314 104.777 166.31 104.528 165.538C104.255 164.99 103.994 164.031 103.994 164.031L104.172 181.045C104.172 181.062 103.805 186.254 104.741 186.889" fill="white"/>
<path fill-rule="evenodd" clip-rule="evenodd" d="M104.741 186.888C104.741 186.888 108.997 182.844 108.001 174.431C107.041 168.314 104.777 166.31 104.528 165.538C104.255 164.99 103.994 164.031 103.994 164.031L104.172 181.045C104.172 181.062 103.805 186.254 104.741 186.889" fill="#499D4A"/>
<path fill-rule="evenodd" clip-rule="evenodd" d="M103.745 187.111C103.745 187.111 99.7499 183.17 99.987 176.231C100.212 169.291 103.034 165.881 103.579 165.264C103.935 164.716 103.947 164.51 103.97 163.962C104.219 164.733 104.172 175.494 104.207 176.762C104.314 181.645 104.018 186.186 103.745 187.111Z" fill="white"/>
<path fill-rule="evenodd" clip-rule="evenodd" d="M103.745 187.111C103.745 187.111 99.7499 183.17 99.987 176.231C100.212 169.291 103.034 165.881 103.579 165.264C103.935 164.716 103.947 164.51 103.97 163.962C104.219 164.733 104.172 175.494 104.207 176.762C104.314 181.645 104.018 186.186 103.745 187.111Z" fill="#58AA50"/>
<g clip-path="url(#clip2)">
<path d="M214.487 181.343C214.487 183.476 216.975 185.467 220.897 186.59C220.114 189.891 220.757 192.552 222.904 193.589C225.111 194.655 228.399 193.917 231.52 191.633C234.562 193.825 237.637 194.687 239.782 193.647C241.987 192.579 242.658 189.737 241.853 186.333C245.938 185.202 248.223 183.504 248.223 181.343C248.223 179.259 245.731 177.457 241.861 176.342C242.728 172.797 241.994 170.2 239.757 169.121C237.602 168.08 234.491 168.987 231.405 171.236C228.193 168.849 225.114 168.12 222.88 169.203C220.726 170.247 220.111 172.956 220.897 176.318C217.107 177.425 214.487 179.268 214.487 181.343Z" fill="white"/>
<path d="M241.042 177.449C240.723 177.358 240.401 177.273 240.077 177.195C240.131 177.012 240.181 176.828 240.226 176.644C240.956 173.677 240.479 171.287 238.849 170.5C237.286 169.745 234.73 170.532 232.148 172.413C231.894 172.599 231.645 172.79 231.402 172.986C231.24 172.855 231.074 172.727 230.906 172.602C228.2 170.591 225.488 169.743 223.86 170.532C222.298 171.289 221.836 173.537 222.493 176.348C222.558 176.627 222.632 176.904 222.715 177.179C222.331 177.271 221.96 177.368 221.606 177.471C218.434 178.397 216.408 179.848 216.408 181.353C216.408 182.908 218.582 184.467 221.886 185.413C222.154 185.489 222.425 185.56 222.697 185.625C222.608 185.921 222.53 186.22 222.461 186.52C221.835 189.283 222.324 191.477 223.881 192.23C225.49 193.006 228.19 192.208 230.818 190.284C231.026 190.132 231.235 189.971 231.444 189.802C231.707 190.014 231.977 190.22 232.253 190.42C234.8 192.255 237.315 192.996 238.871 192.241C240.478 191.463 241 189.106 240.322 186.238C240.27 186.019 240.21 185.795 240.142 185.567C240.332 185.521 240.518 185.472 240.699 185.422C244.134 184.469 246.369 182.929 246.369 181.353C246.369 179.843 244.278 178.382 241.042 177.449V177.449Z" fill="#53C1DE"/>
<path d="M240.297 184.405C240.133 184.45 239.965 184.494 239.793 184.537C239.414 183.532 238.902 182.463 238.276 181.359C238.874 180.281 239.366 179.226 239.734 178.227C240.041 178.302 240.338 178.38 240.625 178.463C243.398 179.262 245.089 180.443 245.089 181.353C245.089 182.323 243.262 183.582 240.297 184.405H240.297ZM239.066 186.446C239.366 187.714 239.409 188.861 239.21 189.757C239.032 190.562 238.673 191.099 238.229 191.314C237.285 191.772 235.266 191.177 233.088 189.608C232.839 189.428 232.587 189.236 232.335 189.033C233.179 188.26 234.023 187.361 234.846 186.363C236.295 186.255 237.663 186.08 238.904 185.839C238.965 186.046 239.019 186.248 239.066 186.446V186.446ZM226.622 191.235C225.7 191.508 224.965 191.516 224.521 191.301C223.576 190.845 223.183 189.083 223.719 186.72C223.783 186.441 223.855 186.163 223.938 185.887C225.165 186.115 226.523 186.278 227.975 186.377C228.804 187.353 229.672 188.251 230.547 189.037C230.361 189.188 230.171 189.334 229.976 189.477C228.814 190.328 227.649 190.931 226.622 191.235H226.622ZM222.3 184.399C220.839 183.981 219.633 183.437 218.806 182.845C218.063 182.312 217.688 181.783 217.688 181.353C217.688 180.44 219.314 179.275 222.027 178.483C222.368 178.384 222.711 178.294 223.058 178.212C223.433 179.233 223.925 180.3 224.518 181.38C223.917 182.475 223.418 183.56 223.04 184.593C222.792 184.533 222.545 184.468 222.3 184.399V184.399ZM223.749 176.143C223.186 173.733 223.56 171.916 224.501 171.46C225.503 170.974 227.72 171.667 230.056 173.403C230.205 173.514 230.355 173.631 230.505 173.751C229.635 174.533 228.775 175.424 227.953 176.395C226.544 176.505 225.195 176.68 223.955 176.915C223.879 176.659 223.81 176.402 223.749 176.143V176.143ZM236.673 178.814C236.38 178.391 236.076 177.973 235.762 177.56C236.718 177.661 237.634 177.795 238.494 177.96C238.235 178.653 237.914 179.377 237.535 180.12C237.258 179.68 236.97 179.245 236.673 178.814V178.814ZM231.403 174.517C231.993 175.052 232.584 175.65 233.166 176.299C231.986 176.252 230.804 176.252 229.625 176.298C230.207 175.655 230.803 175.058 231.403 174.517V174.517ZM226.098 178.822C225.805 179.249 225.523 179.681 225.253 180.119C224.88 179.379 224.561 178.651 224.301 177.948C225.156 177.788 226.067 177.657 227.017 177.558C226.699 177.973 226.393 178.395 226.098 178.822V178.822ZM227.044 185.225C226.063 185.134 225.138 185.009 224.283 184.854C224.548 184.139 224.874 183.395 225.254 182.639C225.525 183.077 225.808 183.51 226.104 183.937C226.405 184.373 226.719 184.802 227.044 185.225V185.225ZM231.438 188.266C230.831 187.718 230.226 187.112 229.635 186.46C230.209 186.479 230.794 186.488 231.388 186.488C231.999 186.488 232.603 186.477 233.197 186.455C232.613 187.118 232.024 187.725 231.438 188.266ZM237.547 182.601C237.947 183.365 238.285 184.104 238.553 184.807C237.684 184.973 236.746 185.107 235.758 185.206C236.075 184.786 236.382 184.36 236.678 183.93C236.979 183.492 237.269 183.049 237.547 182.601V182.601ZM235.569 183.394C235.115 184.054 234.636 184.702 234.132 185.336C233.243 185.389 232.324 185.417 231.388 185.417C230.456 185.417 229.549 185.392 228.676 185.345C228.158 184.712 227.67 184.064 227.211 183.4C226.755 182.74 226.329 182.066 225.933 181.379C226.327 180.692 226.753 180.017 227.208 179.357V179.357C227.662 178.697 228.147 178.051 228.66 177.421C229.551 177.364 230.465 177.335 231.388 177.335C232.316 177.335 233.231 177.365 234.122 177.422C234.63 178.05 235.111 178.694 235.565 179.351C236.022 180.01 236.452 180.682 236.857 181.364C236.457 182.053 236.027 182.731 235.569 183.394H235.569ZM238.21 171.428C239.213 171.913 239.603 173.866 238.973 176.428C238.931 176.595 238.886 176.761 238.838 176.927C237.595 176.686 236.245 176.508 234.832 176.397C234.009 175.415 233.156 174.523 232.299 173.75C232.524 173.569 232.754 173.393 232.988 173.221C235.2 171.61 237.268 170.973 238.21 171.428V171.428Z" fill="white"/>
<path d="M231.388 179.114C232.866 179.114 234.064 180.116 234.064 181.353C234.064 182.591 232.866 183.593 231.388 183.593C229.911 183.593 228.713 182.591 228.713 181.353C228.713 180.116 229.911 179.114 231.388 179.114" fill="#53C1DE"/>
</g>
<path d="M379.179 267.255H268.449V275.204H379.179V267.255Z" fill="#455A64"/>
<path d="M492.509 273.784H123.812V297.415H492.509V273.784Z" fill="#263238"/>
<defs>
<filter id="filter0_d" x="153.81" y="169.765" width="64.0976" height="88.0139" filterUnits="userSpaceOnUse" color-interpolation-filters="sRGB">
<feFlood flood-opacity="0" result="BackgroundImageFix"/>
<feColorMatrix in="SourceAlpha" type="matrix" values="0 0 0 0 0 0 0 0 0 0 0 0 0 0 0 0 0 0 127 0"/>
<feOffset dy="4"/>
<feGaussianBlur stdDeviation="2"/>
<feColorMatrix type="matrix" values="0 0 0 0 0 0 0 0 0 0 0 0 0 0 0 0 0 0 0.25 0"/>
<feBlend mode="normal" in2="BackgroundImageFix" result="effect1_dropShadow"/>
<feBlend mode="normal" in="SourceGraphic" in2="effect1_dropShadow" result="shape"/>
</filter>
<linearGradient id="paint0_linear" x1="238.143" y1="219.893" x2="238.143" y2="215.448" gradientUnits="userSpaceOnUse">
<stop offset="0.387" stop-color="#D1D3D4" stop-opacity="0"/>
<stop offset="1" stop-color="#D1D3D4"/>
</linearGradient>
<linearGradient id="paint1_linear" x1="244.417" y1="217.676" x2="244.417" y2="213.055" gradientUnits="userSpaceOnUse">
<stop offset="0.387" stop-color="#D1D3D4" stop-opacity="0"/>
<stop offset="1" stop-color="#D1D3D4"/>
</linearGradient>
<linearGradient id="paint2_linear" x1="235.123" y1="221.876" x2="247.183" y2="221.876" gradientUnits="userSpaceOnUse">
<stop stop-color="#E8E7E5"/>
<stop offset="1" stop-color="white"/>
</linearGradient>
<linearGradient id="paint3_linear" x1="234.568" y1="214.186" x2="247.661" y2="214.186" gradientUnits="userSpaceOnUse">
<stop stop-color="#E8E7E5"/>
<stop offset="1" stop-color="white"/>
</linearGradient>
<linearGradient id="paint4_linear" x1="124.471" y1="213.421" x2="120.196" y2="220.545" gradientUnits="userSpaceOnUse">
<stop stop-color="#41873F"/>
<stop offset="0.3288" stop-color="#418B3D"/>
<stop offset="0.6352" stop-color="#419637"/>
<stop offset="0.9319" stop-color="#3FA92D"/>
<stop offset="1" stop-color="#3FAE2A"/>
</linearGradient>
<linearGradient id="paint5_linear" x1="122.096" y1="217.287" x2="133.432" y2="210.756" gradientUnits="userSpaceOnUse">
<stop offset="0.1376" stop-color="#41873F"/>
<stop offset="0.4032" stop-color="#54A044"/>
<stop offset="0.7136" stop-color="#66B848"/>
<stop offset="0.9081" stop-color="#6CC04A"/>
</linearGradient>
<linearGradient id="paint6_linear" x1="117.83" y1="216.744" x2="127.657" y2="216.744" gradientUnits="userSpaceOnUse">
<stop offset="0.09192" stop-color="#6CC04A"/>
<stop offset="0.2864" stop-color="#66B848"/>
<stop offset="0.5968" stop-color="#54A044"/>
<stop offset="0.8624" stop-color="#41873F"/>
</linearGradient>
<linearGradient id="paint7_linear" x1="117.83" y1="220.585" x2="127.657" y2="220.585" gradientUnits="userSpaceOnUse">
<stop offset="0.09192" stop-color="#6CC04A"/>
<stop offset="0.2864" stop-color="#66B848"/>
<stop offset="0.5968" stop-color="#54A044"/>
<stop offset="0.8624" stop-color="#41873F"/>
</linearGradient>
<linearGradient id="paint8_linear" x1="129.088" y1="213.202" x2="126.866" y2="225.551" gradientUnits="userSpaceOnUse">
<stop stop-color="#41873F"/>
<stop offset="0.3288" stop-color="#418B3D"/>
<stop offset="0.6352" stop-color="#419637"/>
<stop offset="0.9319" stop-color="#3FA92D"/>
<stop offset="1" stop-color="#3FAE2A"/>
</linearGradient>
<clipPath id="clip0">
<rect width="27.2719" height="24.479" fill="white" transform="translate(187.984 127.984)"/>
</clipPath>
<clipPath id="clip1">
<rect width="22.3134" height="28.3441" fill="white" transform="translate(171.64 196.459)"/>
</clipPath>
<clipPath id="clip2">
<rect width="33.9458" height="25.5331" fill="white" transform="translate(214.387 168.604)"/>
</clipPath>
</defs>
</svg>
